<svg version="1.1" xmlns="http://www.w3.org/2000/svg" xmlns:xlink="http://www.w3.org/1999/xlink" width="1649.30810546875" height="2067"><defs/><g><g transform="translate(-217,-286) scale(1,1)"><path fill="#C0C0C0" stroke="none" d="M 262 1015 L 353.58447265625 1015 Q 363.58447265625 1015 363.58447265625 1025 L 363.58447265625 1044 Q 363.58447265625 1054 353.58447265625 1054 L 262 1054 Q 252 1054 252 1044 L 252 1025 Q 252 1015 262 1015 Z" opacity="0.2"/></g><g transform="translate(-217,-286) scale(1,1)"><path fill="#ffffff" stroke="none" d="M 255 1008 L 346.58447265625 1008 Q 356.58447265625 1008 356.58447265625 1018 L 356.58447265625 1037 Q 356.58447265625 1047 346.58447265625 1047 L 255 1047 Q 245 1047 245 1037 L 245 1018 Q 245 1008 255 1008 Z"/></g><g transform="translate(-217,-286) scale(1,1)"><path fill="none" stroke="#000000" d="M 255 1008 L 346.58447265625 1008 Q 356.58447265625 1008 356.58447265625 1018 L 356.58447265625 1037 Q 356.58447265625 1047 346.58447265625 1047 L 255 1047 Q 245 1047 245 1037 L 245 1018 Q 245 1008 255 1008 Z" stroke-miterlimit="10"/></g><g transform="translate(-217,-286) scale(1,1)"><g><path fill="none" stroke="none"/><text fill="#000000" stroke="none" font-family="Arial" font-size="13px" font-style="normal" font-weight="bold" text-decoration="none" x="252.71826171875" y="1027.5">Đăng kí sử dụng</text></g></g><g transform="translate(-217,-286) scale(1,1)"><path fill="#C0C0C0" stroke="none" d="M 244 1119 L 370.96630859375 1119 Q 380.96630859375 1119 380.96630859375 1129 L 380.96630859375 1148 Q 380.96630859375 1158 370.96630859375 1158 L 244 1158 Q 234 1158 234 1148 L 234 1129 Q 234 1119 244 1119 Z" opacity="0.2"/></g><g transform="translate(-217,-286) scale(1,1)"><path fill="#ffffff" stroke="none" d="M 237 1112 L 363.96630859375 1112 Q 373.96630859375 1112 373.96630859375 1122 L 373.96630859375 1141 Q 373.96630859375 1151 363.96630859375 1151 L 237 1151 Q 227 1151 227 1141 L 227 1122 Q 227 1112 237 1112 Z"/></g><g transform="translate(-217,-286) scale(1,1)"><path fill="none" stroke="#000000" d="M 237 1112 L 363.96630859375 1112 Q 373.96630859375 1112 373.96630859375 1122 L 373.96630859375 1141 Q 373.96630859375 1151 363.96630859375 1151 L 237 1151 Q 227 1151 227 1141 L 227 1122 Q 227 1112 237 1112 Z" stroke-miterlimit="10"/></g><g transform="translate(-217,-286) scale(1,1)"><g><path fill="none" stroke="none"/><text fill="#000000" stroke="none" font-family="Arial" font-size="13px" font-style="normal" font-weight="bold" text-decoration="none" x="236.146484375" y="1131.5">Duyệt đăng kí tự động</text></g></g><g transform="translate(-217,-286) scale(1,1)"><path fill="#C0C0C0" stroke="none" d="M 277 1223 L 338.947265625 1223 Q 348.947265625 1223 348.947265625 1233 L 348.947265625 1252 Q 348.947265625 1262 338.947265625 1262 L 277 1262 Q 267 1262 267 1252 L 267 1233 Q 267 1223 277 1223 Z" opacity="0.2"/></g><g transform="translate(-217,-286) scale(1,1)"><path fill="#ffffff" stroke="none" d="M 270 1216 L 331.947265625 1216 Q 341.947265625 1216 341.947265625 1226 L 341.947265625 1245 Q 341.947265625 1255 331.947265625 1255 L 270 1255 Q 260 1255 260 1245 L 260 1226 Q 260 1216 270 1216 Z"/></g><g transform="translate(-217,-286) scale(1,1)"><path fill="none" stroke="#000000" d="M 270 1216 L 331.947265625 1216 Q 341.947265625 1216 341.947265625 1226 L 341.947265625 1245 Q 341.947265625 1255 331.947265625 1255 L 270 1255 Q 260 1255 260 1245 L 260 1226 Q 260 1216 270 1216 Z" stroke-miterlimit="10"/></g><g transform="translate(-217,-286) scale(1,1)"><g><path fill="none" stroke="none"/><text fill="#000000" stroke="none" font-family="Arial" font-size="13px" font-style="normal" font-weight="bold" text-decoration="none" x="267.010498046875" y="1235.5">Tạo công ty</text></g></g><g transform="translate(-217,-286) scale(1,1)"><path fill="#C0C0C0" stroke="none" d="M 561 1223 L 638.11181640625 1223 Q 648.11181640625 1223 648.11181640625 1233 L 648.11181640625 1252 Q 648.11181640625 1262 638.11181640625 1262 L 561 1262 Q 551 1262 551 1252 L 551 1233 Q 551 1223 561 1223 Z" opacity="0.2"/></g><g transform="translate(-217,-286) scale(1,1)"><path fill="#ffffff" stroke="none" d="M 554 1216 L 631.11181640625 1216 Q 641.11181640625 1216 641.11181640625 1226 L 641.11181640625 1245 Q 641.11181640625 1255 631.11181640625 1255 L 554 1255 Q 544 1255 544 1245 L 544 1226 Q 544 1216 554 1216 Z"/></g><g transform="translate(-217,-286) scale(1,1)"><path fill="none" stroke="#000000" d="M 554 1216 L 631.11181640625 1216 Q 641.11181640625 1216 641.11181640625 1226 L 641.11181640625 1245 Q 641.11181640625 1255 631.11181640625 1255 L 554 1255 Q 544 1255 544 1245 L 544 1226 Q 544 1216 554 1216 Z" stroke-miterlimit="10"/></g><g transform="translate(-217,-286) scale(1,1)"><g><path fill="none" stroke="none"/><text fill="#000000" stroke="none" font-family="Arial" font-size="13px" font-style="normal" font-weight="bold" text-decoration="none" x="551.359619140625" y="1235.5">Tạo chi nhánh</text></g></g><g transform="translate(-217,-286) scale(1,1)"><path fill="#C0C0C0" stroke="none" d="M 721 1927 L 808.97900390625 1927 Q 818.97900390625 1927 818.97900390625 1937 L 818.97900390625 1956 Q 818.97900390625 1966 808.97900390625 1966 L 721 1966 Q 711 1966 711 1956 L 711 1937 Q 711 1927 721 1927 Z" opacity="0.2"/></g><g transform="translate(-217,-286) scale(1,1)"><path fill="#ffffff" stroke="none" d="M 714 1920 L 801.97900390625 1920 Q 811.97900390625 1920 811.97900390625 1930 L 811.97900390625 1949 Q 811.97900390625 1959 801.97900390625 1959 L 714 1959 Q 704 1959 704 1949 L 704 1930 Q 704 1920 714 1920 Z"/></g><g transform="translate(-217,-286) scale(1,1)"><path fill="none" stroke="#000000" d="M 714 1920 L 801.97900390625 1920 Q 811.97900390625 1920 811.97900390625 1930 L 811.97900390625 1949 Q 811.97900390625 1959 801.97900390625 1959 L 714 1959 Q 704 1959 704 1949 L 704 1930 Q 704 1920 714 1920 Z" stroke-miterlimit="10"/></g><g transform="translate(-217,-286) scale(1,1)"><g><path fill="none" stroke="none"/><text fill="#000000" stroke="none" font-family="Arial" font-size="13px" font-style="normal" font-weight="bold" text-decoration="none" x="711.359619140625" y="1939.5">Quản lí nhân sự</text></g></g><g transform="translate(-217,-286) scale(1,1)"><path fill="#C0C0C0" stroke="none" d="M 735 2207 L 828.72998046875 2207 Q 838.72998046875 2207 838.72998046875 2217 L 838.72998046875 2236 Q 838.72998046875 2246 828.72998046875 2246 L 735 2246 Q 725 2246 725 2236 L 725 2217 Q 725 2207 735 2207 Z" opacity="0.2"/></g><g transform="translate(-217,-286) scale(1,1)"><path fill="#ffffff" stroke="none" d="M 728 2200 L 821.72998046875 2200 Q 831.72998046875 2200 831.72998046875 2210 L 831.72998046875 2229 Q 831.72998046875 2239 821.72998046875 2239 L 728 2239 Q 718 2239 718 2229 L 718 2210 Q 718 2200 728 2200 Z"/></g><g transform="translate(-217,-286) scale(1,1)"><path fill="none" stroke="#000000" d="M 728 2200 L 821.72998046875 2200 Q 831.72998046875 2200 831.72998046875 2210 L 831.72998046875 2229 Q 831.72998046875 2239 821.72998046875 2239 L 728 2239 Q 718 2239 718 2229 L 718 2210 Q 718 2200 728 2200 Z" stroke-miterlimit="10"/></g><g transform="translate(-217,-286) scale(1,1)"><g><path fill="none" stroke="none"/><text fill="#000000" stroke="none" font-family="Arial" font-size="13px" font-style="normal" font-weight="bold" text-decoration="none" x="726.080078125" y="2219.5">Kế toán tài chính</text></g></g><g transform="translate(-217,-286) scale(1,1)"><path fill="#C0C0C0" stroke="none" d="M 705 1143 L 756.841796875 1143 Q 766.841796875 1143 766.841796875 1153 L 766.841796875 1172 Q 766.841796875 1182 756.841796875 1182 L 705 1182 Q 695 1182 695 1172 L 695 1153 Q 695 1143 705 1143 Z" opacity="0.2"/></g><g transform="translate(-217,-286) scale(1,1)"><path fill="#ffffff" stroke="none" d="M 698 1136 L 749.841796875 1136 Q 759.841796875 1136 759.841796875 1146 L 759.841796875 1165 Q 759.841796875 1175 749.841796875 1175 L 698 1175 Q 688 1175 688 1165 L 688 1146 Q 688 1136 698 1136 Z"/></g><g transform="translate(-217,-286) scale(1,1)"><path fill="none" stroke="#000000" d="M 698 1136 L 749.841796875 1136 Q 759.841796875 1136 759.841796875 1146 L 759.841796875 1165 Q 759.841796875 1175 749.841796875 1175 L 698 1175 Q 688 1175 688 1165 L 688 1146 Q 688 1136 698 1136 Z" stroke-miterlimit="10"/></g><g transform="translate(-217,-286) scale(1,1)"><g><path fill="none" stroke="none"/><text fill="#000000" stroke="none" font-family="Arial" font-size="13px" font-style="normal" font-weight="bold" text-decoration="none" x="694.29638671875" y="1155.5">Danh mục</text></g></g><g transform="translate(-217,-286) scale(1,1)"><path fill="#C0C0C0" stroke="none" d="M 735 2311 L 831.630859375 2311 Q 841.630859375 2311 841.630859375 2321 L 841.630859375 2340 Q 841.630859375 2350 831.630859375 2350 L 735 2350 Q 725 2350 725 2340 L 725 2321 Q 725 2311 735 2311 Z" opacity="0.2"/></g><g transform="translate(-217,-286) scale(1,1)"><path fill="#ffffff" stroke="none" d="M 728 2304 L 824.630859375 2304 Q 834.630859375 2304 834.630859375 2314 L 834.630859375 2333 Q 834.630859375 2343 824.630859375 2343 L 728 2343 Q 718 2343 718 2333 L 718 2314 Q 718 2304 728 2304 Z"/></g><g transform="translate(-217,-286) scale(1,1)"><path fill="none" stroke="#000000" d="M 728 2304 L 824.630859375 2304 Q 834.630859375 2304 834.630859375 2314 L 834.630859375 2333 Q 834.630859375 2343 824.630859375 2343 L 728 2343 Q 718 2343 718 2333 L 718 2314 Q 718 2304 728 2304 Z" stroke-miterlimit="10"/></g><g transform="translate(-217,-286) scale(1,1)"><g><path fill="none" stroke="none"/><text fill="#000000" stroke="none" font-family="Arial" font-size="13px" font-style="normal" font-weight="bold" text-decoration="none" x="726.08642578125" y="2323.5">Báo cáo tài chính</text></g></g><g transform="translate(-217,-286) scale(1,1)"><path fill="none" stroke="#000000" d="M 300 1048 L 300 1111" stroke-miterlimit="10"/></g><g transform="translate(-217,-286) scale(1,1)"><path fill="none" stroke="#000000" d="M 295.790482243984 1100.837325142376 L 300 1111 L 304.209517756016 1100.837325142376" stroke-miterlimit="10"/></g><g transform="translate(-217,-286) scale(1,1)"><path fill="none" stroke="#000000" d="M 300 1152 L 300 1215" stroke-miterlimit="10"/></g><g transform="translate(-217,-286) scale(1,1)"><path fill="none" stroke="#000000" d="M 295.790482243984 1204.837325142376 L 300 1215 L 304.209517756016 1204.837325142376" stroke-miterlimit="10"/></g><g transform="translate(-217,-286) scale(1,1)"><path fill="none" stroke="#000000" d="M 343 1235 L 543 1235" stroke-miterlimit="10"/></g><g transform="translate(-217,-286) scale(1,1)"><path fill="none" stroke="#000000" d="M 532.8373251423759 1239.2095177560159 L 543 1235 L 532.8373251423758 1230.7904822439841" stroke-miterlimit="10"/></g><g transform="translate(-217,-286) scale(1,1)"><path fill="none" stroke="#000000" d="M 592 1255 L 592 2219 L 718 2219" stroke-miterlimit="10"/></g><g transform="translate(-217,-286) scale(1,1)"><path fill="none" stroke="#000000" d="M 707.8373251423759 2223.209517756016 L 718 2219 L 707.8373251423758 2214.790482243984" stroke-miterlimit="10"/></g><g transform="translate(-217,-286) scale(1,1)"><path fill="none" stroke="#000000" d="M 632 1255 L 632 1939 L 704 1939" stroke-miterlimit="10"/></g><g transform="translate(-217,-286) scale(1,1)"><path fill="none" stroke="#000000" d="M 693.8373251423759 1943.2095177560159 L 704 1939 L 693.8373251423758 1934.7904822439841" stroke-miterlimit="10"/></g><g transform="translate(-217,-286) scale(1,1)"><path fill="none" stroke="#000000" d="M 560 1255 L 560 2323 L 718 2323" stroke-miterlimit="10"/></g><g transform="translate(-217,-286) scale(1,1)"><path fill="none" stroke="#000000" d="M 707.8373251423759 2327.209517756016 L 718 2323 L 707.8373251423758 2318.790482243984" stroke-miterlimit="10"/></g><g transform="translate(-217,-286) scale(1,1)"><path fill="none" stroke="#000000" d="M 620 1216 L 620 1155 L 688 1155" stroke-miterlimit="10"/></g><g transform="translate(-217,-286) scale(1,1)"><path fill="none" stroke="#000000" d="M 677.8373251423759 1159.2095177560159 L 688 1155 L 677.8373251423758 1150.7904822439841" stroke-miterlimit="10"/></g><g transform="translate(-217,-286) scale(1,1)"><path fill="#C0C0C0" stroke="none" d="M 1001 1015 L 1114.22998046875 1015 Q 1124.22998046875 1015 1124.22998046875 1025 L 1124.22998046875 1044 Q 1124.22998046875 1054 1114.22998046875 1054 L 1001 1054 Q 991 1054 991 1044 L 991 1025 Q 991 1015 1001 1015 Z" opacity="0.2"/></g><g transform="translate(-217,-286) scale(1,1)"><path fill="#ffffff" stroke="none" d="M 994 1008 L 1107.22998046875 1008 Q 1117.22998046875 1008 1117.22998046875 1018 L 1117.22998046875 1037 Q 1117.22998046875 1047 1107.22998046875 1047 L 994 1047 Q 984 1047 984 1037 L 984 1018 Q 984 1008 994 1008 Z"/></g><g transform="translate(-217,-286) scale(1,1)"><path fill="none" stroke="#000000" d="M 994 1008 L 1107.22998046875 1008 Q 1117.22998046875 1008 1117.22998046875 1018 L 1117.22998046875 1037 Q 1117.22998046875 1047 1107.22998046875 1047 L 994 1047 Q 984 1047 984 1037 L 984 1018 Q 984 1008 994 1008 Z" stroke-miterlimit="10"/></g><g transform="translate(-217,-286) scale(1,1)"><g><path fill="none" stroke="none"/><text fill="#000000" stroke="none" font-family="Arial" font-size="13px" font-style="normal" font-weight="bold" text-decoration="none" x="992.07373046875" y="1027.5">Danh mục bán hàng</text></g></g><g transform="translate(-217,-286) scale(1,1)"><path fill="#C0C0C0" stroke="none" d="M 1001 1271 L 1170.58447265625 1271 Q 1180.58447265625 1271 1180.58447265625 1281 L 1180.58447265625 1300 Q 1180.58447265625 1310 1170.58447265625 1310 L 1001 1310 Q 991 1310 991 1300 L 991 1281 Q 991 1271 1001 1271 Z" opacity="0.2"/></g><g transform="translate(-217,-286) scale(1,1)"><path fill="#ffffff" stroke="none" d="M 994 1264 L 1163.58447265625 1264 Q 1173.58447265625 1264 1173.58447265625 1274 L 1173.58447265625 1293 Q 1173.58447265625 1303 1163.58447265625 1303 L 994 1303 Q 984 1303 984 1293 L 984 1274 Q 984 1264 994 1264 Z"/></g><g transform="translate(-217,-286) scale(1,1)"><path fill="none" stroke="#000000" d="M 994 1264 L 1163.58447265625 1264 Q 1173.58447265625 1264 1173.58447265625 1274 L 1173.58447265625 1293 Q 1173.58447265625 1303 1163.58447265625 1303 L 994 1303 Q 984 1303 984 1293 L 984 1274 Q 984 1264 994 1264 Z" stroke-miterlimit="10"/></g><g transform="translate(-217,-286) scale(1,1)"><g><path fill="none" stroke="none"/><text fill="#000000" stroke="none" font-family="Arial" font-size="13px" font-style="normal" font-weight="bold" text-decoration="none" x="994.23828125" y="1283.5">Danh mục dành cho sản xuất</text></g></g><g transform="translate(-217,-286) scale(1,1)"><path fill="#C0C0C0" stroke="none" d="M 1001 1471 L 1162.63720703125 1471 Q 1172.63720703125 1471 1172.63720703125 1481 L 1172.63720703125 1500 Q 1172.63720703125 1510 1162.63720703125 1510 L 1001 1510 Q 991 1510 991 1500 L 991 1481 Q 991 1471 1001 1471 Z" opacity="0.2"/></g><g transform="translate(-217,-286) scale(1,1)"><path fill="#ffffff" stroke="none" d="M 994 1464 L 1155.63720703125 1464 Q 1165.63720703125 1464 1165.63720703125 1474 L 1165.63720703125 1493 Q 1165.63720703125 1503 1155.63720703125 1503 L 994 1503 Q 984 1503 984 1493 L 984 1474 Q 984 1464 994 1464 Z"/></g><g transform="translate(-217,-286) scale(1,1)"><path fill="none" stroke="#000000" d="M 994 1464 L 1155.63720703125 1464 Q 1165.63720703125 1464 1165.63720703125 1474 L 1165.63720703125 1493 Q 1165.63720703125 1503 1155.63720703125 1503 L 994 1503 Q 984 1503 984 1493 L 984 1474 Q 984 1464 994 1464 Z" stroke-miterlimit="10"/></g><g transform="translate(-217,-286) scale(1,1)"><g><path fill="none" stroke="none"/><text fill="#000000" stroke="none" font-family="Arial" font-size="13px" font-style="normal" font-weight="bold" text-decoration="none" x="994.24462890625" y="1483.5">Danh mục tiền tệ và quy đổi</text></g></g><g transform="translate(-217,-286) scale(1,1)"><path fill="none" stroke="#000000" d="M 761 1140 L 996 1048" stroke-miterlimit="10"/></g><g transform="translate(-217,-286) scale(1,1)"><path fill="none" stroke="#000000" d="M 988.0712511100642 1055.624627272224 L 996 1048 L 985.0021022453916 1047.7849535418104" stroke-miterlimit="10"/></g><g transform="translate(-217,-286) scale(1,1)"><path fill="none" stroke="#000000" d="M 761 1169 L 1023 1263" stroke-miterlimit="10"/></g><g transform="translate(-217,-286) scale(1,1)"><path fill="none" stroke="#000000" d="M 1012.0127886879337 1263.5302712362584 L 1023 1263 L 1014.8559099878819 1255.6058267619348" stroke-miterlimit="10"/></g><g transform="translate(-217,-286) scale(1,1)"><path fill="none" stroke="#000000" d="M 745 1176 L 1053 1463" stroke-miterlimit="10"/></g><g transform="translate(-217,-286) scale(1,1)"><path fill="none" stroke="#000000" d="M 1042.6951701630603 1459.151561091596 L 1053 1463 L 1048.434642192441 1452.9921276942118" stroke-miterlimit="10"/></g><g transform="translate(-217,-286) scale(1,1)"><path fill="#C0C0C0" stroke="none" d="M 1649 911 L 1820.05712890625 911 Q 1830.05712890625 911 1830.05712890625 921 L 1830.05712890625 940 Q 1830.05712890625 950 1820.05712890625 950 L 1649 950 Q 1639 950 1639 940 L 1639 921 Q 1639 911 1649 911 Z" opacity="0.2"/></g><g transform="translate(-217,-286) scale(1,1)"><path fill="#ffffff" stroke="none" d="M 1642 904 L 1813.05712890625 904 Q 1823.05712890625 904 1823.05712890625 914 L 1823.05712890625 933 Q 1823.05712890625 943 1813.05712890625 943 L 1642 943 Q 1632 943 1632 933 L 1632 914 Q 1632 904 1642 904 Z"/></g><g transform="translate(-217,-286) scale(1,1)"><path fill="none" stroke="#000000" d="M 1642 904 L 1813.05712890625 904 Q 1823.05712890625 904 1823.05712890625 914 L 1823.05712890625 933 Q 1823.05712890625 943 1813.05712890625 943 L 1642 943 Q 1632 943 1632 933 L 1632 914 Q 1632 904 1642 904 Z" stroke-miterlimit="10"/></g><g transform="translate(-217,-286) scale(1,1)"><g><path fill="none" stroke="none"/><text fill="#000000" stroke="none" font-family="Arial" font-size="13px" font-style="normal" font-weight="bold" text-decoration="none" x="1641.87646484375" y="923.5">Danh mục hàng hóa và vật tư</text></g></g><g transform="translate(-217,-286) scale(1,1)"><path fill="#C0C0C0" stroke="none" d="M 1649 967 L 1775.97265625 967 Q 1785.97265625 967 1785.97265625 977 L 1785.97265625 996 Q 1785.97265625 1006 1775.97265625 1006 L 1649 1006 Q 1639 1006 1639 996 L 1639 977 Q 1639 967 1649 967 Z" opacity="0.2"/></g><g transform="translate(-217,-286) scale(1,1)"><path fill="#ffffff" stroke="none" d="M 1642 960 L 1768.97265625 960 Q 1778.97265625 960 1778.97265625 970 L 1778.97265625 989 Q 1778.97265625 999 1768.97265625 999 L 1642 999 Q 1632 999 1632 989 L 1632 970 Q 1632 960 1642 960 Z"/></g><g transform="translate(-217,-286) scale(1,1)"><path fill="none" stroke="#000000" d="M 1642 960 L 1768.97265625 960 Q 1778.97265625 960 1778.97265625 970 L 1778.97265625 989 Q 1778.97265625 999 1768.97265625 999 L 1642 999 Q 1632 999 1632 989 L 1632 970 Q 1632 960 1642 960 Z" stroke-miterlimit="10"/></g><g transform="translate(-217,-286) scale(1,1)"><g><path fill="none" stroke="none"/><text fill="#000000" stroke="none" font-family="Arial" font-size="13px" font-style="normal" font-weight="bold" text-decoration="none" x="1640.791015625" y="979.5">Nhóm hàng hóa vật tư</text></g></g><g transform="translate(-217,-286) scale(1,1)"><path fill="#C0C0C0" stroke="none" d="M 1649 1015 L 1765.8671875 1015 Q 1775.8671875 1015 1775.8671875 1025 L 1775.8671875 1044 Q 1775.8671875 1054 1765.8671875 1054 L 1649 1054 Q 1639 1054 1639 1044 L 1639 1025 Q 1639 1015 1649 1015 Z" opacity="0.2"/></g><g transform="translate(-217,-286) scale(1,1)"><path fill="#ffffff" stroke="none" d="M 1642 1008 L 1758.8671875 1008 Q 1768.8671875 1008 1768.8671875 1018 L 1768.8671875 1037 Q 1768.8671875 1047 1758.8671875 1047 L 1642 1047 Q 1632 1047 1632 1037 L 1632 1018 Q 1632 1008 1642 1008 Z"/></g><g transform="translate(-217,-286) scale(1,1)"><path fill="none" stroke="#000000" d="M 1642 1008 L 1758.8671875 1008 Q 1768.8671875 1008 1768.8671875 1018 L 1768.8671875 1037 Q 1768.8671875 1047 1758.8671875 1047 L 1642 1047 Q 1632 1047 1632 1037 L 1632 1018 Q 1632 1008 1642 1008 Z" stroke-miterlimit="10"/></g><g transform="translate(-217,-286) scale(1,1)"><g><path fill="none" stroke="none"/><text fill="#000000" stroke="none" font-family="Arial" font-size="13px" font-style="normal" font-weight="bold" text-decoration="none" x="1640.787841796875" y="1027.5">Loại hàng hóa vật tư</text></g></g><g transform="translate(-217,-286) scale(1,1)"><path fill="#C0C0C0" stroke="none" d="M 1657 1159 L 1807.08447265625 1159 Q 1817.08447265625 1159 1817.08447265625 1169 L 1817.08447265625 1188 Q 1817.08447265625 1198 1807.08447265625 1198 L 1657 1198 Q 1647 1198 1647 1188 L 1647 1169 Q 1647 1159 1657 1159 Z" opacity="0.2"/></g><g transform="translate(-217,-286) scale(1,1)"><path fill="#ffffff" stroke="none" d="M 1650 1152 L 1800.08447265625 1152 Q 1810.08447265625 1152 1810.08447265625 1162 L 1810.08447265625 1181 Q 1810.08447265625 1191 1800.08447265625 1191 L 1650 1191 Q 1640 1191 1640 1181 L 1640 1162 Q 1640 1152 1650 1152 Z"/></g><g transform="translate(-217,-286) scale(1,1)"><path fill="none" stroke="#000000" d="M 1650 1152 L 1800.08447265625 1152 Q 1810.08447265625 1152 1810.08447265625 1162 L 1810.08447265625 1181 Q 1810.08447265625 1191 1800.08447265625 1191 L 1650 1191 Q 1640 1191 1640 1181 L 1640 1162 Q 1640 1152 1650 1152 Z" stroke-miterlimit="10"/></g><g transform="translate(-217,-286) scale(1,1)"><g><path fill="none" stroke="none"/><text fill="#000000" stroke="none" font-family="Arial" font-size="13px" font-style="normal" font-weight="bold" text-decoration="none" x="1649.885986328125" y="1171.5">Danh mục nguyên vật liệu</text></g></g><g transform="translate(-217,-286) scale(1,1)"><path fill="#C0C0C0" stroke="none" d="M 1657 1215 L 1853.30810546875 1215 Q 1863.30810546875 1215 1863.30810546875 1225 L 1863.30810546875 1244 Q 1863.30810546875 1254 1853.30810546875 1254 L 1657 1254 Q 1647 1254 1647 1244 L 1647 1225 Q 1647 1215 1657 1215 Z" opacity="0.2"/></g><g transform="translate(-217,-286) scale(1,1)"><path fill="#ffffff" stroke="none" d="M 1650 1208 L 1846.30810546875 1208 Q 1856.30810546875 1208 1856.30810546875 1218 L 1856.30810546875 1237 Q 1856.30810546875 1247 1846.30810546875 1247 L 1650 1247 Q 1640 1247 1640 1237 L 1640 1218 Q 1640 1208 1650 1208 Z"/></g><g transform="translate(-217,-286) scale(1,1)"><path fill="none" stroke="#000000" d="M 1650 1208 L 1846.30810546875 1208 Q 1856.30810546875 1208 1856.30810546875 1218 L 1856.30810546875 1237 Q 1856.30810546875 1247 1846.30810546875 1247 L 1650 1247 Q 1640 1247 1640 1237 L 1640 1218 Q 1640 1208 1650 1208 Z" stroke-miterlimit="10"/></g><g transform="translate(-217,-286) scale(1,1)"><g><path fill="none" stroke="none"/><text fill="#000000" stroke="none" font-family="Arial" font-size="13px" font-style="normal" font-weight="bold" text-decoration="none" x="1651.663330078125" y="1227.5">Danh mục công thức thành phẩm</text></g></g><g transform="translate(-217,-286) scale(1,1)"><path fill="#C0C0C0" stroke="none" d="M 1657 1263 L 1750.7236328125 1263 Q 1760.7236328125 1263 1760.7236328125 1273 L 1760.7236328125 1292 Q 1760.7236328125 1302 1750.7236328125 1302 L 1657 1302 Q 1647 1302 1647 1292 L 1647 1273 Q 1647 1263 1657 1263 Z" opacity="0.2"/></g><g transform="translate(-217,-286) scale(1,1)"><path fill="#ffffff" stroke="none" d="M 1650 1256 L 1743.7236328125 1256 Q 1753.7236328125 1256 1753.7236328125 1266 L 1753.7236328125 1285 Q 1753.7236328125 1295 1743.7236328125 1295 L 1650 1295 Q 1640 1295 1640 1285 L 1640 1266 Q 1640 1256 1650 1256 Z"/></g><g transform="translate(-217,-286) scale(1,1)"><path fill="none" stroke="#000000" d="M 1650 1256 L 1743.7236328125 1256 Q 1753.7236328125 1256 1753.7236328125 1266 L 1753.7236328125 1285 Q 1753.7236328125 1295 1743.7236328125 1295 L 1650 1295 Q 1640 1295 1640 1285 L 1640 1266 Q 1640 1256 1650 1256 Z" stroke-miterlimit="10"/></g><g transform="translate(-217,-286) scale(1,1)"><g><path fill="none" stroke="none"/><text fill="#000000" stroke="none" font-family="Arial" font-size="13px" font-style="normal" font-weight="bold" text-decoration="none" x="1647.70556640625" y="1275.5">Phiếu nhập hàng</text></g></g><g transform="translate(-217,-286) scale(1,1)"><path fill="#C0C0C0" stroke="none" d="M 1649 1071 L 1819.873046875 1071 Q 1829.873046875 1071 1829.873046875 1081 L 1829.873046875 1100 Q 1829.873046875 1110 1819.873046875 1110 L 1649 1110 Q 1639 1110 1639 1100 L 1639 1081 Q 1639 1071 1649 1071 Z" opacity="0.2"/></g><g transform="translate(-217,-286) scale(1,1)"><path fill="#ffffff" stroke="none" d="M 1642 1064 L 1812.873046875 1064 Q 1822.873046875 1064 1822.873046875 1074 L 1822.873046875 1093 Q 1822.873046875 1103 1812.873046875 1103 L 1642 1103 Q 1632 1103 1632 1093 L 1632 1074 Q 1632 1064 1642 1064 Z"/></g><g transform="translate(-217,-286) scale(1,1)"><path fill="none" stroke="#000000" d="M 1642 1064 L 1812.873046875 1064 Q 1822.873046875 1064 1822.873046875 1074 L 1822.873046875 1093 Q 1822.873046875 1103 1812.873046875 1103 L 1642 1103 Q 1632 1103 1632 1093 L 1632 1074 Q 1632 1064 1642 1064 Z" stroke-miterlimit="10"/></g><g transform="translate(-217,-286) scale(1,1)"><g><path fill="none" stroke="none"/><text fill="#000000" stroke="none" font-family="Arial" font-size="13px" font-style="normal" font-weight="bold" text-decoration="none" x="1642.2255859375" y="1083.5">Hóa đơn bán hàng và dịch vụ</text></g></g><g transform="translate(-217,-286) scale(1,1)"><path fill="#C0C0C0" stroke="none" d="M 1657 1327 L 1773.12451171875 1327 Q 1783.12451171875 1327 1783.12451171875 1337 L 1783.12451171875 1356 Q 1783.12451171875 1366 1773.12451171875 1366 L 1657 1366 Q 1647 1366 1647 1356 L 1647 1337 Q 1647 1327 1657 1327 Z" opacity="0.2"/></g><g transform="translate(-217,-286) scale(1,1)"><path fill="#ffffff" stroke="none" d="M 1650 1320 L 1766.12451171875 1320 Q 1776.12451171875 1320 1776.12451171875 1330 L 1776.12451171875 1349 Q 1776.12451171875 1359 1766.12451171875 1359 L 1650 1359 Q 1640 1359 1640 1349 L 1640 1330 Q 1640 1320 1650 1320 Z"/></g><g transform="translate(-217,-286) scale(1,1)"><path fill="none" stroke="#000000" d="M 1650 1320 L 1766.12451171875 1320 Q 1776.12451171875 1320 1776.12451171875 1330 L 1776.12451171875 1349 Q 1776.12451171875 1359 1766.12451171875 1359 L 1650 1359 Q 1640 1359 1640 1349 L 1640 1330 Q 1640 1320 1650 1320 Z" stroke-miterlimit="10"/></g><g transform="translate(-217,-286) scale(1,1)"><g><path fill="none" stroke="none"/><text fill="#000000" stroke="none" font-family="Arial" font-size="13px" font-style="normal" font-weight="bold" text-decoration="none" x="1648.42919921875" y="1339.5">Phiếu xuất bán hàng</text></g></g><g transform="translate(-217,-286) scale(1,1)"><path fill="#C0C0C0" stroke="none" d="M 1657 1415 L 1820.82080078125 1415 Q 1830.82080078125 1415 1830.82080078125 1425 L 1830.82080078125 1444 Q 1830.82080078125 1454 1820.82080078125 1454 L 1657 1454 Q 1647 1454 1647 1444 L 1647 1425 Q 1647 1415 1657 1415 Z" opacity="0.2"/></g><g transform="translate(-217,-286) scale(1,1)"><path fill="#ffffff" stroke="none" d="M 1650 1408 L 1813.82080078125 1408 Q 1823.82080078125 1408 1823.82080078125 1418 L 1823.82080078125 1437 Q 1823.82080078125 1447 1813.82080078125 1447 L 1650 1447 Q 1640 1447 1640 1437 L 1640 1418 Q 1640 1408 1650 1408 Z"/></g><g transform="translate(-217,-286) scale(1,1)"><path fill="none" stroke="#000000" d="M 1650 1408 L 1813.82080078125 1408 Q 1823.82080078125 1408 1823.82080078125 1418 L 1823.82080078125 1437 Q 1823.82080078125 1447 1813.82080078125 1447 L 1650 1447 Q 1640 1447 1640 1437 L 1640 1418 Q 1640 1408 1650 1408 Z" stroke-miterlimit="10"/></g><g transform="translate(-217,-286) scale(1,1)"><g><path fill="none" stroke="none"/><text fill="#000000" stroke="none" font-family="Arial" font-size="13px" font-style="normal" font-weight="bold" text-decoration="none" x="1649.88916015625" y="1427.5">Xem tiền tệ và hệ số quy đổi</text></g></g><g transform="translate(-217,-286) scale(1,1)"><path fill="#C0C0C0" stroke="none" d="M 1657 1479 L 1849.55029296875 1479 Q 1859.55029296875 1479 1859.55029296875 1489 L 1859.55029296875 1508 Q 1859.55029296875 1518 1849.55029296875 1518 L 1657 1518 Q 1647 1518 1647 1508 L 1647 1489 Q 1647 1479 1657 1479 Z" opacity="0.2"/></g><g transform="translate(-217,-286) scale(1,1)"><path fill="#ffffff" stroke="none" d="M 1650 1472 L 1842.55029296875 1472 Q 1852.55029296875 1472 1852.55029296875 1482 L 1852.55029296875 1501 Q 1852.55029296875 1511 1842.55029296875 1511 L 1650 1511 Q 1640 1511 1640 1501 L 1640 1482 Q 1640 1472 1650 1472 Z"/></g><g transform="translate(-217,-286) scale(1,1)"><path fill="none" stroke="#000000" d="M 1650 1472 L 1842.55029296875 1472 Q 1852.55029296875 1472 1852.55029296875 1482 L 1852.55029296875 1501 Q 1852.55029296875 1511 1842.55029296875 1511 L 1650 1511 Q 1640 1511 1640 1501 L 1640 1482 Q 1640 1472 1650 1472 Z" stroke-miterlimit="10"/></g><g transform="translate(-217,-286) scale(1,1)"><g><path fill="none" stroke="none"/><text fill="#000000" stroke="none" font-family="Arial" font-size="13px" font-style="normal" font-weight="bold" text-decoration="none" x="1651.320556640625" y="1491.5">Xem đơn vị tính và hệ số quy đổi</text></g></g><g transform="translate(-217,-286) scale(1,1)"><path fill="#C0C0C0" stroke="none" d="M 1657 1583 L 1841.03173828125 1583 Q 1851.03173828125 1583 1851.03173828125 1593 L 1851.03173828125 1612 Q 1851.03173828125 1622 1841.03173828125 1622 L 1657 1622 Q 1647 1622 1647 1612 L 1647 1593 Q 1647 1583 1657 1583 Z" opacity="0.2"/></g><g transform="translate(-217,-286) scale(1,1)"><path fill="#ffffff" stroke="none" d="M 1650 1576 L 1834.03173828125 1576 Q 1844.03173828125 1576 1844.03173828125 1586 L 1844.03173828125 1605 Q 1844.03173828125 1615 1834.03173828125 1615 L 1650 1615 Q 1640 1615 1640 1605 L 1640 1586 Q 1640 1576 1650 1576 Z"/></g><g transform="translate(-217,-286) scale(1,1)"><path fill="none" stroke="#000000" d="M 1650 1576 L 1834.03173828125 1576 Q 1844.03173828125 1576 1844.03173828125 1586 L 1844.03173828125 1605 Q 1844.03173828125 1615 1834.03173828125 1615 L 1650 1615 Q 1640 1615 1640 1605 L 1640 1586 Q 1640 1576 1650 1576 Z" stroke-miterlimit="10"/></g><g transform="translate(-217,-286) scale(1,1)"><g><path fill="none" stroke="none"/><text fill="#000000" stroke="none" font-family="Arial" font-size="13px" font-style="normal" font-weight="bold" text-decoration="none" x="1650.9619140625" y="1595.5">Danh mục hệ số quy đổi cài đặt</text></g></g><g transform="translate(-217,-286) scale(1,1)"><path fill="none" stroke="#000000" d="M 1080 1008 L 1080 923 L 1632 923" stroke-miterlimit="10"/></g><g transform="translate(-217,-286) scale(1,1)"><path fill="none" stroke="#000000" d="M 1621.837325142376 927.209517756016 L 1632 923 L 1621.837325142376 918.790482243984" stroke-miterlimit="10"/></g><g transform="translate(-217,-286) scale(1,1)"><path fill="none" stroke="#000000" d="M 1117 1008 L 1117 976 L 1632 976" stroke-miterlimit="10"/></g><g transform="translate(-217,-286) scale(1,1)"><path fill="none" stroke="#000000" d="M 1621.837325142376 980.209517756016 L 1632 976 L 1621.837325142376 971.790482243984" stroke-miterlimit="10"/></g><g transform="translate(-217,-286) scale(1,1)"><path fill="none" stroke="#000000" d="M 1117 1032 L 1632 1032" stroke-miterlimit="10"/></g><g transform="translate(-217,-286) scale(1,1)"><path fill="none" stroke="#000000" d="M 1621.837325142376 1036.2095177560159 L 1632 1032 L 1621.837325142376 1027.7904822439841" stroke-miterlimit="10"/></g><g transform="translate(-217,-286) scale(1,1)"><path fill="none" stroke="#000000" d="M 1088 1047 L 1088 1083 L 1632 1083" stroke-miterlimit="10"/></g><g transform="translate(-217,-286) scale(1,1)"><path fill="none" stroke="#000000" d="M 1621.837325142376 1087.2095177560159 L 1632 1083 L 1621.837325142376 1078.7904822439841" stroke-miterlimit="10"/></g><g transform="translate(-217,-286) scale(1,1)"><path fill="none" stroke="#000000" d="M 1078 1264 L 1078 1192 L 1312 1192 L 1312 1191 L 1640 1191" stroke-miterlimit="10"/></g><g transform="translate(-217,-286) scale(1,1)"><path fill="none" stroke="#000000" d="M 1629.837325142376 1195.2095177560159 L 1640 1191 L 1629.837325142376 1186.7904822439841" stroke-miterlimit="10"/></g><g transform="translate(-217,-286) scale(1,1)"><path fill="none" stroke="#000000" d="M 1126 1264 L 1126 1224 L 1640 1224" stroke-miterlimit="10"/></g><g transform="translate(-217,-286) scale(1,1)"><path fill="none" stroke="#000000" d="M 1629.837325142376 1228.2095177560159 L 1640 1224 L 1629.837325142376 1219.7904822439841" stroke-miterlimit="10"/></g><g transform="translate(-217,-286) scale(1,1)"><path fill="none" stroke="#000000" d="M 1174 1282 L 1640 1282" stroke-miterlimit="10"/></g><g transform="translate(-217,-286) scale(1,1)"><path fill="none" stroke="#000000" d="M 1629.837325142376 1286.2095177560159 L 1640 1282 L 1629.837325142376 1277.7904822439841" stroke-miterlimit="10"/></g><g transform="translate(-217,-286) scale(1,1)"><path fill="none" stroke="#000000" d="M 1078 1303 L 1078 1344 L 1640 1344" stroke-miterlimit="10"/></g><g transform="translate(-217,-286) scale(1,1)"><path fill="none" stroke="#000000" d="M 1629.837325142376 1348.2095177560159 L 1640 1344 L 1629.837325142376 1339.7904822439841" stroke-miterlimit="10"/></g><g transform="translate(-217,-286) scale(1,1)"><path fill="none" stroke="#000000" d="M 1122 1464 L 1122 1432 L 1640 1432" stroke-miterlimit="10"/></g><g transform="translate(-217,-286) scale(1,1)"><path fill="none" stroke="#000000" d="M 1629.837325142376 1436.2095177560159 L 1640 1432 L 1629.837325142376 1427.7904822439841" stroke-miterlimit="10"/></g><g transform="translate(-217,-286) scale(1,1)"><path fill="none" stroke="#000000" d="M 1166 1490 L 1640 1490" stroke-miterlimit="10"/></g><g transform="translate(-217,-286) scale(1,1)"><path fill="none" stroke="#000000" d="M 1629.837325142376 1494.2095177560159 L 1640 1490 L 1629.837325142376 1485.7904822439841" stroke-miterlimit="10"/></g><g transform="translate(-217,-286) scale(1,1)"><path fill="none" stroke="#000000" d="M 1122 1503 L 1122 1577 L 1640 1577" stroke-miterlimit="10"/></g><g transform="translate(-217,-286) scale(1,1)"><path fill="none" stroke="#000000" d="M 1629.837325142376 1581.2095177560159 L 1640 1577 L 1629.837325142376 1572.7904822439841" stroke-miterlimit="10"/></g><g transform="translate(-217,-286) scale(1,1)"><path fill="#C0C0C0" stroke="none" d="M 1001 1639 L 1234.16259765625 1639 Q 1244.16259765625 1639 1244.16259765625 1649 L 1244.16259765625 1668 Q 1244.16259765625 1678 1234.16259765625 1678 L 1001 1678 Q 991 1678 991 1668 L 991 1649 Q 991 1639 1001 1639 Z" opacity="0.2"/></g><g transform="translate(-217,-286) scale(1,1)"><path fill="#ffffff" stroke="none" d="M 994 1632 L 1227.16259765625 1632 Q 1237.16259765625 1632 1237.16259765625 1642 L 1237.16259765625 1661 Q 1237.16259765625 1671 1227.16259765625 1671 L 994 1671 Q 984 1671 984 1661 L 984 1642 Q 984 1632 994 1632 Z"/></g><g transform="translate(-217,-286) scale(1,1)"><path fill="none" stroke="#000000" d="M 994 1632 L 1227.16259765625 1632 Q 1237.16259765625 1632 1237.16259765625 1642 L 1237.16259765625 1661 Q 1237.16259765625 1671 1227.16259765625 1671 L 994 1671 Q 984 1671 984 1661 L 984 1642 Q 984 1632 994 1632 Z" stroke-miterlimit="10"/></g><g transform="translate(-217,-286) scale(1,1)"><g><path fill="none" stroke="none"/><text fill="#000000" stroke="none" font-family="Arial" font-size="13px" font-style="normal" font-weight="bold" text-decoration="none" x="996.031494140625" y="1651.5">Danh mục khách hàng và nhà cung cấp</text></g></g><g transform="translate(-217,-286) scale(1,1)"><path fill="#C0C0C0" stroke="none" d="M 1673 1655 L 1800.68994140625 1655 Q 1810.68994140625 1655 1810.68994140625 1665 L 1810.68994140625 1684 Q 1810.68994140625 1694 1800.68994140625 1694 L 1673 1694 Q 1663 1694 1663 1684 L 1663 1665 Q 1663 1655 1673 1655 Z" opacity="0.2"/></g><g transform="translate(-217,-286) scale(1,1)"><path fill="#ffffff" stroke="none" d="M 1666 1648 L 1793.68994140625 1648 Q 1803.68994140625 1648 1803.68994140625 1658 L 1803.68994140625 1677 Q 1803.68994140625 1687 1793.68994140625 1687 L 1666 1687 Q 1656 1687 1656 1677 L 1656 1658 Q 1656 1648 1666 1648 Z"/></g><g transform="translate(-217,-286) scale(1,1)"><path fill="none" stroke="#000000" d="M 1666 1648 L 1793.68994140625 1648 Q 1803.68994140625 1648 1803.68994140625 1658 L 1803.68994140625 1677 Q 1803.68994140625 1687 1793.68994140625 1687 L 1666 1687 Q 1656 1687 1656 1677 L 1656 1658 Q 1656 1648 1666 1648 Z" stroke-miterlimit="10"/></g><g transform="translate(-217,-286) scale(1,1)"><g><path fill="none" stroke="none"/><text fill="#000000" stroke="none" font-family="Arial" font-size="13px" font-style="normal" font-weight="bold" text-decoration="none" x="1664.8037109375" y="1667.5">Danh mục khách hàng</text></g></g><g transform="translate(-217,-286) scale(1,1)"><path fill="#C0C0C0" stroke="none" d="M 1689 1727 L 1828.24267578125 1727 Q 1838.24267578125 1727 1838.24267578125 1737 L 1838.24267578125 1756 Q 1838.24267578125 1766 1828.24267578125 1766 L 1689 1766 Q 1679 1766 1679 1756 L 1679 1737 Q 1679 1727 1689 1727 Z" opacity="0.2"/></g><g transform="translate(-217,-286) scale(1,1)"><path fill="#ffffff" stroke="none" d="M 1682 1720 L 1821.24267578125 1720 Q 1831.24267578125 1720 1831.24267578125 1730 L 1831.24267578125 1749 Q 1831.24267578125 1759 1821.24267578125 1759 L 1682 1759 Q 1672 1759 1672 1749 L 1672 1730 Q 1672 1720 1682 1720 Z"/></g><g transform="translate(-217,-286) scale(1,1)"><path fill="none" stroke="#000000" d="M 1682 1720 L 1821.24267578125 1720 Q 1831.24267578125 1720 1831.24267578125 1730 L 1831.24267578125 1749 Q 1831.24267578125 1759 1821.24267578125 1759 L 1682 1759 Q 1672 1759 1672 1749 L 1672 1730 Q 1672 1720 1682 1720 Z" stroke-miterlimit="10"/></g><g transform="translate(-217,-286) scale(1,1)"><g><path fill="none" stroke="none"/><text fill="#000000" stroke="none" font-family="Arial" font-size="13px" font-style="normal" font-weight="bold" text-decoration="none" x="1681.1591796875" y="1739.5">Danh mục nhà cung cấp</text></g></g><g transform="translate(-217,-286) scale(1,1)"><path fill="#C0C0C0" stroke="none" d="M 1017 1815 L 1114.34814453125 1815 Q 1124.34814453125 1815 1124.34814453125 1825 L 1124.34814453125 1844 Q 1124.34814453125 1854 1114.34814453125 1854 L 1017 1854 Q 1007 1854 1007 1844 L 1007 1825 Q 1007 1815 1017 1815 Z" opacity="0.2"/></g><g transform="translate(-217,-286) scale(1,1)"><path fill="#ffffff" stroke="none" d="M 1010 1808 L 1107.34814453125 1808 Q 1117.34814453125 1808 1117.34814453125 1818 L 1117.34814453125 1837 Q 1117.34814453125 1847 1107.34814453125 1847 L 1010 1847 Q 1000 1847 1000 1837 L 1000 1818 Q 1000 1808 1010 1808 Z"/></g><g transform="translate(-217,-286) scale(1,1)"><path fill="none" stroke="#000000" d="M 1010 1808 L 1107.34814453125 1808 Q 1117.34814453125 1808 1117.34814453125 1818 L 1117.34814453125 1837 Q 1117.34814453125 1847 1107.34814453125 1847 L 1010 1847 Q 1000 1847 1000 1837 L 1000 1818 Q 1000 1808 1010 1808 Z" stroke-miterlimit="10"/></g><g transform="translate(-217,-286) scale(1,1)"><g><path fill="none" stroke="none"/><text fill="#000000" stroke="none" font-family="Arial" font-size="13px" font-style="normal" font-weight="bold" text-decoration="none" x="1007.721435546875" y="1827.5">Quản lí nhân viên</text></g></g><g transform="translate(-217,-286) scale(1,1)"><path fill="#C0C0C0" stroke="none" d="M 1433 1899 L 1541.716796875 1899 Q 1551.716796875 1899 1551.716796875 1909 L 1551.716796875 1928 Q 1551.716796875 1938 1541.716796875 1938 L 1433 1938 Q 1423 1938 1423 1928 L 1423 1909 Q 1423 1899 1433 1899 Z" opacity="0.2"/></g><g transform="translate(-217,-286) scale(1,1)"><path fill="#ffffff" stroke="none" d="M 1426 1892 L 1534.716796875 1892 Q 1544.716796875 1892 1544.716796875 1902 L 1544.716796875 1921 Q 1544.716796875 1931 1534.716796875 1931 L 1426 1931 Q 1416 1931 1416 1921 L 1416 1902 Q 1416 1892 1426 1892 Z"/></g><g transform="translate(-217,-286) scale(1,1)"><path fill="none" stroke="#000000" d="M 1426 1892 L 1534.716796875 1892 Q 1544.716796875 1892 1544.716796875 1902 L 1544.716796875 1921 Q 1544.716796875 1931 1534.716796875 1931 L 1426 1931 Q 1416 1931 1416 1921 L 1416 1902 Q 1416 1892 1426 1892 Z" stroke-miterlimit="10"/></g><g transform="translate(-217,-286) scale(1,1)"><g><path fill="none" stroke="none"/><text fill="#000000" stroke="none" font-family="Arial" font-size="13px" font-style="normal" font-weight="bold" text-decoration="none" x="1424.775146484375" y="1911.5">Hợp đồng lao động</text></g></g><g transform="translate(-217,-286) scale(1,1)"><path fill="#C0C0C0" stroke="none" d="M 1433 1957 L 1585.80126953125 1957 Q 1595.80126953125 1957 1595.80126953125 1967 L 1595.80126953125 1986 Q 1595.80126953125 1996 1585.80126953125 1996 L 1433 1996 Q 1423 1996 1423 1986 L 1423 1967 Q 1423 1957 1433 1957 Z" opacity="0.2"/></g><g transform="translate(-217,-286) scale(1,1)"><path fill="#ffffff" stroke="none" d="M 1426 1950 L 1578.80126953125 1950 Q 1588.80126953125 1950 1588.80126953125 1960 L 1588.80126953125 1979 Q 1588.80126953125 1989 1578.80126953125 1989 L 1426 1989 Q 1416 1989 1416 1979 L 1416 1960 Q 1416 1950 1426 1950 Z"/></g><g transform="translate(-217,-286) scale(1,1)"><path fill="none" stroke="#000000" d="M 1426 1950 L 1578.80126953125 1950 Q 1588.80126953125 1950 1588.80126953125 1960 L 1588.80126953125 1979 Q 1588.80126953125 1989 1578.80126953125 1989 L 1426 1989 Q 1416 1989 1416 1979 L 1416 1960 Q 1416 1950 1426 1950 Z" stroke-miterlimit="10"/></g><g transform="translate(-217,-286) scale(1,1)"><g><path fill="none" stroke="none"/><text fill="#000000" stroke="none" font-family="Arial" font-size="13px" font-style="normal" font-weight="bold" text-decoration="none" x="1425.866943359375" y="1969.5">Hợp đồng bảo hiểm xã hội</text></g></g><g transform="translate(-217,-286) scale(1,1)"><path fill="#C0C0C0" stroke="none" d="M 1017 2143 L 1116.9697265625 2143 Q 1126.9697265625 2143 1126.9697265625 2153 L 1126.9697265625 2172 Q 1126.9697265625 2182 1116.9697265625 2182 L 1017 2182 Q 1007 2182 1007 2172 L 1007 2153 Q 1007 2143 1017 2143 Z" opacity="0.2"/></g><g transform="translate(-217,-286) scale(1,1)"><path fill="#ffffff" stroke="none" d="M 1010 2136 L 1109.9697265625 2136 Q 1119.9697265625 2136 1119.9697265625 2146 L 1119.9697265625 2165 Q 1119.9697265625 2175 1109.9697265625 2175 L 1010 2175 Q 1000 2175 1000 2165 L 1000 2146 Q 1000 2136 1010 2136 Z"/></g><g transform="translate(-217,-286) scale(1,1)"><path fill="none" stroke="#000000" d="M 1010 2136 L 1109.9697265625 2136 Q 1119.9697265625 2136 1119.9697265625 2146 L 1119.9697265625 2165 Q 1119.9697265625 2175 1109.9697265625 2175 L 1010 2175 Q 1000 2175 1000 2165 L 1000 2146 Q 1000 2136 1010 2136 Z" stroke-miterlimit="10"/></g><g transform="translate(-217,-286) scale(1,1)"><g><path fill="none" stroke="none"/><text fill="#000000" stroke="none" font-family="Arial" font-size="13px" font-style="normal" font-weight="bold" text-decoration="none" x="1008.78466796875" y="2155.5">Lương và thưởng</text></g></g><g transform="translate(-217,-286) scale(1,1)"><path fill="#C0C0C0" stroke="none" d="M 1017 1927 L 1147.99072265625 1927 Q 1157.99072265625 1927 1157.99072265625 1937 L 1157.99072265625 1956 Q 1157.99072265625 1966 1147.99072265625 1966 L 1017 1966 Q 1007 1966 1007 1956 L 1007 1937 Q 1007 1927 1017 1927 Z" opacity="0.2"/></g><g transform="translate(-217,-286) scale(1,1)"><path fill="#ffffff" stroke="none" d="M 1010 1920 L 1140.99072265625 1920 Q 1150.99072265625 1920 1150.99072265625 1930 L 1150.99072265625 1949 Q 1150.99072265625 1959 1140.99072265625 1959 L 1010 1959 Q 1000 1959 1000 1949 L 1000 1930 Q 1000 1920 1010 1920 Z"/></g><g transform="translate(-217,-286) scale(1,1)"><path fill="none" stroke="#000000" d="M 1010 1920 L 1140.99072265625 1920 Q 1150.99072265625 1920 1150.99072265625 1930 L 1150.99072265625 1949 Q 1150.99072265625 1959 1140.99072265625 1959 L 1010 1959 Q 1000 1959 1000 1949 L 1000 1930 Q 1000 1920 1010 1920 Z" stroke-miterlimit="10"/></g><g transform="translate(-217,-286) scale(1,1)"><g><path fill="none" stroke="none"/><text fill="#000000" stroke="none" font-family="Arial" font-size="13px" font-style="normal" font-weight="bold" text-decoration="none" x="1009.5146484375" y="1939.5">Hợp dồng và quyền lợi</text></g></g><g transform="translate(-217,-286) scale(1,1)"><path fill="#C0C0C0" stroke="none" d="M 1433 2015 L 1492.78271484375 2015 Q 1502.78271484375 2015 1502.78271484375 2025 L 1502.78271484375 2044 Q 1502.78271484375 2054 1492.78271484375 2054 L 1433 2054 Q 1423 2054 1423 2044 L 1423 2025 Q 1423 2015 1433 2015 Z" opacity="0.2"/></g><g transform="translate(-217,-286) scale(1,1)"><path fill="#ffffff" stroke="none" d="M 1426 2008 L 1485.78271484375 2008 Q 1495.78271484375 2008 1495.78271484375 2018 L 1495.78271484375 2037 Q 1495.78271484375 2047 1485.78271484375 2047 L 1426 2047 Q 1416 2047 1416 2037 L 1416 2018 Q 1416 2008 1426 2008 Z"/></g><g transform="translate(-217,-286) scale(1,1)"><path fill="none" stroke="#000000" d="M 1426 2008 L 1485.78271484375 2008 Q 1495.78271484375 2008 1495.78271484375 2018 L 1495.78271484375 2037 Q 1495.78271484375 2047 1485.78271484375 2047 L 1426 2047 Q 1416 2047 1416 2037 L 1416 2018 Q 1416 2008 1426 2008 Z" stroke-miterlimit="10"/></g><g transform="translate(-217,-286) scale(1,1)"><g><path fill="none" stroke="none"/><text fill="#000000" stroke="none" font-family="Arial" font-size="13px" font-style="normal" font-weight="bold" text-decoration="none" x="1422.65185546875" y="2027.5">Chấm công</text></g></g><g transform="translate(-217,-286) scale(1,1)"><path fill="#C0C0C0" stroke="none" d="M 1433 2073 L 1590.93017578125 2073 Q 1600.93017578125 2073 1600.93017578125 2083 L 1600.93017578125 2102 Q 1600.93017578125 2112 1590.93017578125 2112 L 1433 2112 Q 1423 2112 1423 2102 L 1423 2083 Q 1423 2073 1433 2073 Z" opacity="0.2"/></g><g transform="translate(-217,-286) scale(1,1)"><path fill="#ffffff" stroke="none" d="M 1426 2066 L 1583.93017578125 2066 Q 1593.93017578125 2066 1593.93017578125 2076 L 1593.93017578125 2095 Q 1593.93017578125 2105 1583.93017578125 2105 L 1426 2105 Q 1416 2105 1416 2095 L 1416 2076 Q 1416 2066 1426 2066 Z"/></g><g transform="translate(-217,-286) scale(1,1)"><path fill="none" stroke="#000000" d="M 1426 2066 L 1583.93017578125 2066 Q 1593.93017578125 2066 1593.93017578125 2076 L 1593.93017578125 2095 Q 1593.93017578125 2105 1583.93017578125 2105 L 1426 2105 Q 1416 2105 1416 2095 L 1416 2076 Q 1416 2066 1426 2066 Z" stroke-miterlimit="10"/></g><g transform="translate(-217,-286) scale(1,1)"><g><path fill="none" stroke="none"/><text fill="#000000" stroke="none" font-family="Arial" font-size="13px" font-style="normal" font-weight="bold" text-decoration="none" x="1425.55908203125" y="2085.5">Tăng ca và cắt giờ làm việc</text></g></g><g transform="translate(-217,-286) scale(1,1)"><path fill="#C0C0C0" stroke="none" d="M 1433 2131 L 1557.0908203125 2131 Q 1567.0908203125 2131 1567.0908203125 2141 L 1567.0908203125 2160 Q 1567.0908203125 2170 1557.0908203125 2170 L 1433 2170 Q 1423 2170 1423 2160 L 1423 2141 Q 1423 2131 1433 2131 Z" opacity="0.2"/></g><g transform="translate(-217,-286) scale(1,1)"><path fill="#ffffff" stroke="none" d="M 1426 2124 L 1550.0908203125 2124 Q 1560.0908203125 2124 1560.0908203125 2134 L 1560.0908203125 2153 Q 1560.0908203125 2163 1550.0908203125 2163 L 1426 2163 Q 1416 2163 1416 2153 L 1416 2134 Q 1416 2124 1426 2124 Z"/></g><g transform="translate(-217,-286) scale(1,1)"><path fill="none" stroke="#000000" d="M 1426 2124 L 1550.0908203125 2124 Q 1560.0908203125 2124 1560.0908203125 2134 L 1560.0908203125 2153 Q 1560.0908203125 2163 1550.0908203125 2163 L 1426 2163 Q 1416 2163 1416 2153 L 1416 2134 Q 1416 2124 1426 2124 Z" stroke-miterlimit="10"/></g><g transform="translate(-217,-286) scale(1,1)"><g><path fill="none" stroke="none"/><text fill="#000000" stroke="none" font-family="Arial" font-size="13px" font-style="normal" font-weight="bold" text-decoration="none" x="1462.029541015625" y="2143.5">Công tác</text></g></g><g transform="translate(-217,-286) scale(1,1)"><path fill="#C0C0C0" stroke="none" d="M 1433 2189 L 1541.7802734375 2189 Q 1551.7802734375 2189 1551.7802734375 2199 L 1551.7802734375 2218 Q 1551.7802734375 2228 1541.7802734375 2228 L 1433 2228 Q 1423 2228 1423 2218 L 1423 2199 Q 1423 2189 1433 2189 Z" opacity="0.2"/></g><g transform="translate(-217,-286) scale(1,1)"><path fill="#ffffff" stroke="none" d="M 1426 2182 L 1534.7802734375 2182 Q 1544.7802734375 2182 1544.7802734375 2192 L 1544.7802734375 2211 Q 1544.7802734375 2221 1534.7802734375 2221 L 1426 2221 Q 1416 2221 1416 2211 L 1416 2192 Q 1416 2182 1426 2182 Z"/></g><g transform="translate(-217,-286) scale(1,1)"><path fill="none" stroke="#000000" d="M 1426 2182 L 1534.7802734375 2182 Q 1544.7802734375 2182 1544.7802734375 2192 L 1544.7802734375 2211 Q 1544.7802734375 2221 1534.7802734375 2221 L 1426 2221 Q 1416 2221 1416 2211 L 1416 2192 Q 1416 2182 1426 2182 Z" stroke-miterlimit="10"/></g><g transform="translate(-217,-286) scale(1,1)"><g><path fill="none" stroke="none"/><text fill="#000000" stroke="none" font-family="Arial" font-size="13px" font-style="normal" font-weight="bold" text-decoration="none" x="1424.11181640625" y="2201.5">Đi muộn và về sớm</text></g></g><g transform="translate(-217,-286) scale(1,1)"><path fill="#C0C0C0" stroke="none" d="M 1433 2247 L 1472.41943359375 2247 Q 1482.41943359375 2247 1482.41943359375 2257 L 1482.41943359375 2276 Q 1482.41943359375 2286 1472.41943359375 2286 L 1433 2286 Q 1423 2286 1423 2276 L 1423 2257 Q 1423 2247 1433 2247 Z" opacity="0.2"/></g><g transform="translate(-217,-286) scale(1,1)"><path fill="#ffffff" stroke="none" d="M 1426 2240 L 1465.41943359375 2240 Q 1475.41943359375 2240 1475.41943359375 2250 L 1475.41943359375 2269 Q 1475.41943359375 2279 1465.41943359375 2279 L 1426 2279 Q 1416 2279 1416 2269 L 1416 2250 Q 1416 2240 1426 2240 Z"/></g><g transform="translate(-217,-286) scale(1,1)"><path fill="none" stroke="#000000" d="M 1426 2240 L 1465.41943359375 2240 Q 1475.41943359375 2240 1475.41943359375 2250 L 1475.41943359375 2269 Q 1475.41943359375 2279 1465.41943359375 2279 L 1426 2279 Q 1416 2279 1416 2269 L 1416 2250 Q 1416 2240 1426 2240 Z" stroke-miterlimit="10"/></g><g transform="translate(-217,-286) scale(1,1)"><g><path fill="none" stroke="none"/><text fill="#000000" stroke="none" font-family="Arial" font-size="13px" font-style="normal" font-weight="bold" text-decoration="none" x="1422.280517578125" y="2259.5">Thưởng</text></g></g><g transform="translate(-217,-286) scale(1,1)"><path fill="#C0C0C0" stroke="none" d="M 1433 2305 L 1487.74267578125 2305 Q 1497.74267578125 2305 1497.74267578125 2315 L 1497.74267578125 2334 Q 1497.74267578125 2344 1487.74267578125 2344 L 1433 2344 Q 1423 2344 1423 2334 L 1423 2315 Q 1423 2305 1433 2305 Z" opacity="0.2"/></g><g transform="translate(-217,-286) scale(1,1)"><path fill="#ffffff" stroke="none" d="M 1426 2298 L 1480.74267578125 2298 Q 1490.74267578125 2298 1490.74267578125 2308 L 1490.74267578125 2327 Q 1490.74267578125 2337 1480.74267578125 2337 L 1426 2337 Q 1416 2337 1416 2327 L 1416 2308 Q 1416 2298 1426 2298 Z"/></g><g transform="translate(-217,-286) scale(1,1)"><path fill="none" stroke="#000000" d="M 1426 2298 L 1480.74267578125 2298 Q 1490.74267578125 2298 1490.74267578125 2308 L 1490.74267578125 2327 Q 1490.74267578125 2337 1480.74267578125 2337 L 1426 2337 Q 1416 2337 1416 2327 L 1416 2308 Q 1416 2298 1426 2298 Z" stroke-miterlimit="10"/></g><g transform="translate(-217,-286) scale(1,1)"><g><path fill="none" stroke="none"/><text fill="#000000" stroke="none" font-family="Arial" font-size="13px" font-style="normal" font-weight="bold" text-decoration="none" x="1422.302734375" y="2317.5">Hạnh kiểm</text></g></g><g transform="translate(-217,-286) scale(1,1)"><path fill="#C0C0C0" stroke="none" d="M 1433 1783 L 1545.4873046875 1783 Q 1555.4873046875 1783 1555.4873046875 1793 L 1555.4873046875 1812 Q 1555.4873046875 1822 1545.4873046875 1822 L 1433 1822 Q 1423 1822 1423 1812 L 1423 1793 Q 1423 1783 1433 1783 Z" opacity="0.2"/></g><g transform="translate(-217,-286) scale(1,1)"><path fill="#ffffff" stroke="none" d="M 1426 1776 L 1538.4873046875 1776 Q 1548.4873046875 1776 1548.4873046875 1786 L 1548.4873046875 1805 Q 1548.4873046875 1815 1538.4873046875 1815 L 1426 1815 Q 1416 1815 1416 1805 L 1416 1786 Q 1416 1776 1426 1776 Z"/></g><g transform="translate(-217,-286) scale(1,1)"><path fill="none" stroke="#000000" d="M 1426 1776 L 1538.4873046875 1776 Q 1548.4873046875 1776 1548.4873046875 1786 L 1548.4873046875 1805 Q 1548.4873046875 1815 1538.4873046875 1815 L 1426 1815 Q 1416 1815 1416 1805 L 1416 1786 Q 1416 1776 1426 1776 Z" stroke-miterlimit="10"/></g><g transform="translate(-217,-286) scale(1,1)"><g><path fill="none" stroke="none"/><text fill="#000000" stroke="none" font-family="Arial" font-size="13px" font-style="normal" font-weight="bold" text-decoration="none" x="1425.146484375" y="1795.5">Thông tin nhân viên</text></g></g><g transform="translate(-217,-286) scale(1,1)"><path fill="#C0C0C0" stroke="none" d="M 1433 1841 L 1546.96630859375 1841 Q 1556.96630859375 1841 1556.96630859375 1851 L 1556.96630859375 1870 Q 1556.96630859375 1880 1546.96630859375 1880 L 1433 1880 Q 1423 1880 1423 1870 L 1423 1851 Q 1423 1841 1433 1841 Z" opacity="0.2"/></g><g transform="translate(-217,-286) scale(1,1)"><path fill="#ffffff" stroke="none" d="M 1426 1834 L 1539.96630859375 1834 Q 1549.96630859375 1834 1549.96630859375 1844 L 1549.96630859375 1863 Q 1549.96630859375 1873 1539.96630859375 1873 L 1426 1873 Q 1416 1873 1416 1863 L 1416 1844 Q 1416 1834 1426 1834 Z"/></g><g transform="translate(-217,-286) scale(1,1)"><path fill="none" stroke="#000000" d="M 1426 1834 L 1539.96630859375 1834 Q 1549.96630859375 1834 1549.96630859375 1844 L 1549.96630859375 1863 Q 1549.96630859375 1873 1539.96630859375 1873 L 1426 1873 Q 1416 1873 1416 1863 L 1416 1844 Q 1416 1834 1426 1834 Z" stroke-miterlimit="10"/></g><g transform="translate(-217,-286) scale(1,1)"><g><path fill="none" stroke="none"/><text fill="#000000" stroke="none" font-family="Arial" font-size="13px" font-style="normal" font-weight="bold" text-decoration="none" x="1424.080078125" y="1853.5">Tìa khoản nhân viên</text></g></g><g transform="translate(-217,-286) scale(1,1)"><path fill="none" stroke="#000000" d="M 1058 1808 L 1058 1784 L 1416 1784" stroke-miterlimit="10"/></g><g transform="translate(-217,-286) scale(1,1)"><path fill="none" stroke="#000000" d="M 1405.837325142376 1788.2095177560159 L 1416 1784 L 1405.837325142376 1779.7904822439841" stroke-miterlimit="10"/></g><g transform="translate(-217,-286) scale(1,1)"><path fill="none" stroke="#000000" d="M 1058 1847 L 1058 1864 L 1416 1864" stroke-miterlimit="10"/></g><g transform="translate(-217,-286) scale(1,1)"><path fill="none" stroke="#000000" d="M 1405.837325142376 1868.2095177560159 L 1416 1864 L 1405.837325142376 1859.7904822439841" stroke-miterlimit="10"/></g><g transform="translate(-217,-286) scale(1,1)"><path fill="none" stroke="#000000" d="M 1151 1920 L 1216 1920 L 1216 1904 L 1416 1904" stroke-miterlimit="10"/></g><g transform="translate(-217,-286) scale(1,1)"><path fill="none" stroke="#000000" d="M 1405.837325142376 1908.2095177560159 L 1416 1904 L 1405.837325142376 1899.7904822439841" stroke-miterlimit="10"/></g><g transform="translate(-217,-286) scale(1,1)"><path fill="none" stroke="#000000" d="M 1151 1959 L 1224 1959 L 1224 1984 L 1416 1984" stroke-miterlimit="10"/></g><g transform="translate(-217,-286) scale(1,1)"><path fill="none" stroke="#000000" d="M 1405.837325142376 1988.2095177560159 L 1416 1984 L 1405.837325142376 1979.7904822439841" stroke-miterlimit="10"/></g><g transform="translate(-217,-286) scale(1,1)"><path fill="none" stroke="#000000" d="M 1067 2136 L 1067 2040 L 1416 2040" stroke-miterlimit="10"/></g><g transform="translate(-217,-286) scale(1,1)"><path fill="none" stroke="#000000" d="M 1405.837325142376 2044.2095177560159 L 1416 2040 L 1405.837325142376 2035.7904822439841" stroke-miterlimit="10"/></g><g transform="translate(-217,-286) scale(1,1)"><path fill="none" stroke="#000000" d="M 1067 2136 L 1067 2088 L 1416 2088" stroke-miterlimit="10"/></g><g transform="translate(-217,-286) scale(1,1)"><path fill="none" stroke="#000000" d="M 1405.837325142376 2092.209517756016 L 1416 2088 L 1405.837325142376 2083.790482243984" stroke-miterlimit="10"/></g><g transform="translate(-217,-286) scale(1,1)"><path fill="none" stroke="#000000" d="M 1120 2136 L 1416 2136" stroke-miterlimit="10"/></g><g transform="translate(-217,-286) scale(1,1)"><path fill="none" stroke="#000000" d="M 1405.837325142376 2140.209517756016 L 1416 2136 L 1405.837325142376 2131.790482243984" stroke-miterlimit="10"/></g><g transform="translate(-217,-286) scale(1,1)"><path fill="none" stroke="#000000" d="M 1067 2175 L 1067 2194 L 1416 2194" stroke-miterlimit="10"/></g><g transform="translate(-217,-286) scale(1,1)"><path fill="none" stroke="#000000" d="M 1405.837325142376 2198.209517756016 L 1416 2194 L 1405.837325142376 2189.790482243984" stroke-miterlimit="10"/></g><g transform="translate(-217,-286) scale(1,1)"><path fill="none" stroke="#000000" d="M 1067 2175 L 1067 2251 L 1416 2251" stroke-miterlimit="10"/></g><g transform="translate(-217,-286) scale(1,1)"><path fill="none" stroke="#000000" d="M 1405.837325142376 2255.209517756016 L 1416 2251 L 1405.837325142376 2246.790482243984" stroke-miterlimit="10"/></g><g transform="translate(-217,-286) scale(1,1)"><path fill="none" stroke="#000000" d="M 1064 2175 L 1064 2301 L 1416 2301" stroke-miterlimit="10"/></g><g transform="translate(-217,-286) scale(1,1)"><path fill="none" stroke="#000000" d="M 1405.837325142376 2305.209517756016 L 1416 2301 L 1405.837325142376 2296.790482243984" stroke-miterlimit="10"/></g><g transform="translate(-217,-286) scale(1,1)"><path fill="none" stroke="#000000" d="M 811 1919 L 1002 1848" stroke-miterlimit="10"/></g><g transform="translate(-217,-286) scale(1,1)"><path fill="none" stroke="#000000" d="M 993.9409169788424 1855.486733657483 L 1002 1848 L 991.0074476074503 1847.595287883738" stroke-miterlimit="10"/></g><g transform="translate(-217,-286) scale(1,1)"><path fill="none" stroke="#000000" d="M 813 1939 L 999 1939" stroke-miterlimit="10"/></g><g transform="translate(-217,-286) scale(1,1)"><path fill="none" stroke="#000000" d="M 988.8373251423759 1943.2095177560159 L 999 1939 L 988.8373251423758 1934.7904822439841" stroke-miterlimit="10"/></g><g transform="translate(-217,-286) scale(1,1)"><path fill="none" stroke="#000000" d="M 786 1960 L 1031 2135" stroke-miterlimit="10"/></g><g transform="translate(-217,-286) scale(1,1)"><path fill="none" stroke="#000000" d="M 1020.2835588144249 2132.518490718109 L 1031 2135 L 1025.1770238082952 2125.6676397266906" stroke-miterlimit="10"/></g><g transform="translate(-217,-286) scale(1,1)"><path fill="none" stroke="#000000" d="M 739 1176 L 1094 1631" stroke-miterlimit="10"/></g><g transform="translate(-217,-286) scale(1,1)"><path fill="none" stroke="#000000" d="M 1084.4296763077034 1625.5770022658437 L 1094 1631 L 1091.067397691208 1620.3981207468455" stroke-miterlimit="10"/></g><g transform="translate(-217,-286) scale(1,1)"><path fill="none" stroke="#000000" d="M 1237 1665 L 1656 1665" stroke-miterlimit="10"/></g><g transform="translate(-217,-286) scale(1,1)"><path fill="none" stroke="#000000" d="M 1645.837325142376 1669.2095177560159 L 1656 1665 L 1645.837325142376 1660.7904822439841" stroke-miterlimit="10"/></g><g transform="translate(-217,-286) scale(1,1)"><path fill="none" stroke="#000000" d="M 1110 1671 L 1110 1728 L 1672 1728" stroke-miterlimit="10"/></g><g transform="translate(-217,-286) scale(1,1)"><path fill="none" stroke="#000000" d="M 1661.837325142376 1732.2095177560159 L 1672 1728 L 1661.837325142376 1723.7904822439841" stroke-miterlimit="10"/></g><g transform="translate(-217,-286) scale(1,1)"><path fill="#C0C0C0" stroke="none" d="M 993 351 L 1189.3017578125 351 Q 1199.3017578125 351 1199.3017578125 361 L 1199.3017578125 380 Q 1199.3017578125 390 1189.3017578125 390 L 993 390 Q 983 390 983 380 L 983 361 Q 983 351 993 351 Z" opacity="0.2"/></g><g transform="translate(-217,-286) scale(1,1)"><path fill="#ffffff" stroke="none" d="M 986 344 L 1182.3017578125 344 Q 1192.3017578125 344 1192.3017578125 354 L 1192.3017578125 373 Q 1192.3017578125 383 1182.3017578125 383 L 986 383 Q 976 383 976 373 L 976 354 Q 976 344 986 344 Z"/></g><g transform="translate(-217,-286) scale(1,1)"><path fill="none" stroke="#000000" d="M 986 344 L 1182.3017578125 344 Q 1192.3017578125 344 1192.3017578125 354 L 1192.3017578125 373 Q 1192.3017578125 383 1182.3017578125 383 L 986 383 Q 976 383 976 373 L 976 354 Q 976 344 986 344 Z" stroke-miterlimit="10"/></g><g transform="translate(-217,-286) scale(1,1)"><g><path fill="none" stroke="none"/><text fill="#000000" stroke="none" font-family="Arial" font-size="13px" font-style="normal" font-weight="bold" text-decoration="none" x="987.656982421875" y="363.5">Danh mục dành cho từng module</text></g></g><g transform="translate(-217,-286) scale(1,1)"><path fill="#C0C0C0" stroke="none" d="M 1281 759 L 1387.76171875 759 Q 1397.76171875 759 1397.76171875 769 L 1397.76171875 788 Q 1397.76171875 798 1387.76171875 798 L 1281 798 Q 1271 798 1271 788 L 1271 769 Q 1271 759 1281 759 Z" opacity="0.2"/></g><g transform="translate(-217,-286) scale(1,1)"><path fill="#ffffff" stroke="none" d="M 1274 752 L 1380.76171875 752 Q 1390.76171875 752 1390.76171875 762 L 1390.76171875 781 Q 1390.76171875 791 1380.76171875 791 L 1274 791 Q 1264 791 1264 781 L 1264 762 Q 1264 752 1274 752 Z"/></g><g transform="translate(-217,-286) scale(1,1)"><path fill="none" stroke="#000000" d="M 1274 752 L 1380.76171875 752 Q 1390.76171875 752 1390.76171875 762 L 1390.76171875 781 Q 1390.76171875 791 1380.76171875 791 L 1274 791 Q 1264 791 1264 781 L 1264 762 Q 1264 752 1274 752 Z" stroke-miterlimit="10"/></g><g transform="translate(-217,-286) scale(1,1)"><g><path fill="none" stroke="none"/><text fill="#000000" stroke="none" font-family="Arial" font-size="13px" font-style="normal" font-weight="bold" text-decoration="none" x="1272.083251953125" y="771.5">Danh mục nhân sự</text></g></g><g transform="translate(-217,-286) scale(1,1)"><path fill="#C0C0C0" stroke="none" d="M 1481 831 L 1609.38818359375 831 Q 1619.38818359375 831 1619.38818359375 841 L 1619.38818359375 860 Q 1619.38818359375 870 1609.38818359375 870 L 1481 870 Q 1471 870 1471 860 L 1471 841 Q 1471 831 1481 831 Z" opacity="0.2"/></g><g transform="translate(-217,-286) scale(1,1)"><path fill="#ffffff" stroke="none" d="M 1474 824 L 1602.38818359375 824 Q 1612.38818359375 824 1612.38818359375 834 L 1612.38818359375 853 Q 1612.38818359375 863 1602.38818359375 863 L 1474 863 Q 1464 863 1464 853 L 1464 834 Q 1464 824 1474 824 Z"/></g><g transform="translate(-217,-286) scale(1,1)"><path fill="none" stroke="#000000" d="M 1474 824 L 1602.38818359375 824 Q 1612.38818359375 824 1612.38818359375 834 L 1612.38818359375 853 Q 1612.38818359375 863 1602.38818359375 863 L 1474 863 Q 1464 863 1464 853 L 1464 834 Q 1464 824 1474 824 Z" stroke-miterlimit="10"/></g><g transform="translate(-217,-286) scale(1,1)"><g><path fill="none" stroke="none"/><text fill="#000000" stroke="none" font-family="Arial" font-size="13px" font-style="normal" font-weight="bold" text-decoration="none" x="1472.775146484375" y="843.5">Phòng ban và bộ phận</text></g></g><g transform="translate(-217,-286) scale(1,1)"><path fill="#C0C0C0" stroke="none" d="M 1481 755 L 1522.75537109375 755 Q 1532.75537109375 755 1532.75537109375 765 L 1532.75537109375 784 Q 1532.75537109375 794 1522.75537109375 794 L 1481 794 Q 1471 794 1471 784 L 1471 765 Q 1471 755 1481 755 Z" opacity="0.2"/></g><g transform="translate(-217,-286) scale(1,1)"><path fill="#ffffff" stroke="none" d="M 1474 748 L 1515.75537109375 748 Q 1525.75537109375 748 1525.75537109375 758 L 1525.75537109375 777 Q 1525.75537109375 787 1515.75537109375 787 L 1474 787 Q 1464 787 1464 777 L 1464 758 Q 1464 748 1474 748 Z"/></g><g transform="translate(-217,-286) scale(1,1)"><path fill="none" stroke="#000000" d="M 1474 748 L 1515.75537109375 748 Q 1525.75537109375 748 1525.75537109375 758 L 1525.75537109375 777 Q 1525.75537109375 787 1515.75537109375 787 L 1474 787 Q 1464 787 1464 777 L 1464 758 Q 1464 748 1474 748 Z" stroke-miterlimit="10"/></g><g transform="translate(-217,-286) scale(1,1)"><g><path fill="none" stroke="none"/><text fill="#000000" stroke="none" font-family="Arial" font-size="13px" font-style="normal" font-weight="bold" text-decoration="none" x="1470.29638671875" y="767.5">Chức vụ</text></g></g><g transform="translate(-217,-286) scale(1,1)"><path fill="#C0C0C0" stroke="none" d="M 1481 679 L 1532.1181640625 679 Q 1542.1181640625 679 1542.1181640625 689 L 1542.1181640625 708 Q 1542.1181640625 718 1532.1181640625 718 L 1481 718 Q 1471 718 1471 708 L 1471 689 Q 1471 679 1481 679 Z" opacity="0.2"/></g><g transform="translate(-217,-286) scale(1,1)"><path fill="#ffffff" stroke="none" d="M 1474 672 L 1525.1181640625 672 Q 1535.1181640625 672 1535.1181640625 682 L 1535.1181640625 701 Q 1535.1181640625 711 1525.1181640625 711 L 1474 711 Q 1464 711 1464 701 L 1464 682 Q 1464 672 1474 672 Z"/></g><g transform="translate(-217,-286) scale(1,1)"><path fill="none" stroke="#000000" d="M 1474 672 L 1525.1181640625 672 Q 1535.1181640625 672 1535.1181640625 682 L 1535.1181640625 701 Q 1535.1181640625 711 1525.1181640625 711 L 1474 711 Q 1464 711 1464 701 L 1464 682 Q 1464 672 1474 672 Z" stroke-miterlimit="10"/></g><g transform="translate(-217,-286) scale(1,1)"><g><path fill="none" stroke="none"/><text fill="#000000" stroke="none" font-family="Arial" font-size="13px" font-style="normal" font-weight="bold" text-decoration="none" x="1470.534423828125" y="691.5">Trạng thái</text></g></g><g transform="translate(-217,-286) scale(1,1)"><path fill="#C0C0C0" stroke="none" d="M 1289 439 L 1334.32275390625 439 Q 1344.32275390625 439 1344.32275390625 449 L 1344.32275390625 468 Q 1344.32275390625 478 1334.32275390625 478 L 1289 478 Q 1279 478 1279 468 L 1279 449 Q 1279 439 1289 439 Z" opacity="0.2"/></g><g transform="translate(-217,-286) scale(1,1)"><path fill="#ffffff" stroke="none" d="M 1282 432 L 1327.32275390625 432 Q 1337.32275390625 432 1337.32275390625 442 L 1337.32275390625 461 Q 1337.32275390625 471 1327.32275390625 471 L 1282 471 Q 1272 471 1272 461 L 1272 442 Q 1272 432 1282 432 Z"/></g><g transform="translate(-217,-286) scale(1,1)"><path fill="none" stroke="#000000" d="M 1282 432 L 1327.32275390625 432 Q 1337.32275390625 432 1337.32275390625 442 L 1337.32275390625 461 Q 1337.32275390625 471 1327.32275390625 471 L 1282 471 Q 1272 471 1272 461 L 1272 442 Q 1272 432 1282 432 Z" stroke-miterlimit="10"/></g><g transform="translate(-217,-286) scale(1,1)"><g><path fill="none" stroke="none"/><text fill="#000000" stroke="none" font-family="Arial" font-size="13px" font-style="normal" font-weight="bold" text-decoration="none" x="1278.280517578125" y="451.5">Hệ thống</text></g></g><g transform="translate(-217,-286) scale(1,1)"><path fill="#C0C0C0" stroke="none" d="M 1497 303 L 1548.1181640625 303 Q 1558.1181640625 303 1558.1181640625 313 L 1558.1181640625 332 Q 1558.1181640625 342 1548.1181640625 342 L 1497 342 Q 1487 342 1487 332 L 1487 313 Q 1487 303 1497 303 Z" opacity="0.2"/></g><g transform="translate(-217,-286) scale(1,1)"><path fill="#ffffff" stroke="none" d="M 1490 296 L 1541.1181640625 296 Q 1551.1181640625 296 1551.1181640625 306 L 1551.1181640625 325 Q 1551.1181640625 335 1541.1181640625 335 L 1490 335 Q 1480 335 1480 325 L 1480 306 Q 1480 296 1490 296 Z"/></g><g transform="translate(-217,-286) scale(1,1)"><path fill="none" stroke="#000000" d="M 1490 296 L 1541.1181640625 296 Q 1551.1181640625 296 1551.1181640625 306 L 1551.1181640625 325 Q 1551.1181640625 335 1541.1181640625 335 L 1490 335 Q 1480 335 1480 325 L 1480 306 Q 1480 296 1490 296 Z" stroke-miterlimit="10"/></g><g transform="translate(-217,-286) scale(1,1)"><g><path fill="none" stroke="none"/><text fill="#000000" stroke="none" font-family="Arial" font-size="13px" font-style="normal" font-weight="bold" text-decoration="none" x="1486.534423828125" y="315.5">Trạng thái</text></g></g><g transform="translate(-217,-286) scale(1,1)"><path fill="#C0C0C0" stroke="none" d="M 1497 356 L 1554.45947265625 356 Q 1564.45947265625 356 1564.45947265625 366 L 1564.45947265625 385 Q 1564.45947265625 395 1554.45947265625 395 L 1497 395 Q 1487 395 1487 385 L 1487 366 Q 1487 356 1497 356 Z" opacity="0.2"/></g><g transform="translate(-217,-286) scale(1,1)"><path fill="#ffffff" stroke="none" d="M 1490 349 L 1547.45947265625 349 Q 1557.45947265625 349 1557.45947265625 359 L 1557.45947265625 378 Q 1557.45947265625 388 1547.45947265625 388 L 1490 388 Q 1480 388 1480 378 L 1480 359 Q 1480 349 1490 349 Z"/></g><g transform="translate(-217,-286) scale(1,1)"><path fill="none" stroke="#000000" d="M 1490 349 L 1547.45947265625 349 Q 1557.45947265625 349 1557.45947265625 359 L 1557.45947265625 378 Q 1557.45947265625 388 1547.45947265625 388 L 1490 388 Q 1480 388 1480 378 L 1480 359 Q 1480 349 1490 349 Z" stroke-miterlimit="10"/></g><g transform="translate(-217,-286) scale(1,1)"><g><path fill="none" stroke="none"/><text fill="#000000" stroke="none" font-family="Arial" font-size="13px" font-style="normal" font-weight="bold" text-decoration="none" x="1487.010498046875" y="368.5">Đơn vị tính</text></g></g><g transform="translate(-217,-286) scale(1,1)"><path fill="#C0C0C0" stroke="none" d="M 1497 409 L 1536 409 Q 1546 409 1546 419 L 1546 438 Q 1546 448 1536 448 L 1497 448 Q 1487 448 1487 438 L 1487 419 Q 1487 409 1497 409 Z" opacity="0.2"/></g><g transform="translate(-217,-286) scale(1,1)"><path fill="#ffffff" stroke="none" d="M 1490 402 L 1529 402 Q 1539 402 1539 412 L 1539 431 Q 1539 441 1529 441 L 1490 441 Q 1480 441 1480 431 L 1480 412 Q 1480 402 1490 402 Z"/></g><g transform="translate(-217,-286) scale(1,1)"><path fill="none" stroke="#000000" d="M 1490 402 L 1529 402 Q 1539 402 1539 412 L 1539 431 Q 1539 441 1529 441 L 1490 441 Q 1480 441 1480 431 L 1480 412 Q 1480 402 1490 402 Z" stroke-miterlimit="10"/></g><g transform="translate(-217,-286) scale(1,1)"><g><path fill="none" stroke="none"/><text fill="#000000" stroke="none" font-family="Arial" font-size="13px" font-style="normal" font-weight="bold" text-decoration="none" x="1489.869873046875" y="421.5">Tiền tệ</text></g></g><g transform="translate(-217,-286) scale(1,1)"><path fill="#C0C0C0" stroke="none" d="M 1497 462 L 1536 462 Q 1546 462 1546 472 L 1546 491 Q 1546 501 1536 501 L 1497 501 Q 1487 501 1487 491 L 1487 472 Q 1487 462 1497 462 Z" opacity="0.2"/></g><g transform="translate(-217,-286) scale(1,1)"><path fill="#ffffff" stroke="none" d="M 1490 455 L 1529 455 Q 1539 455 1539 465 L 1539 484 Q 1539 494 1529 494 L 1490 494 Q 1480 494 1480 484 L 1480 465 Q 1480 455 1490 455 Z"/></g><g transform="translate(-217,-286) scale(1,1)"><path fill="none" stroke="#000000" d="M 1490 455 L 1529 455 Q 1539 455 1539 465 L 1539 484 Q 1539 494 1529 494 L 1490 494 Q 1480 494 1480 484 L 1480 465 Q 1480 455 1490 455 Z" stroke-miterlimit="10"/></g><g transform="translate(-217,-286) scale(1,1)"><g><path fill="none" stroke="none"/><text fill="#000000" stroke="none" font-family="Arial" font-size="13px" font-style="normal" font-weight="bold" text-decoration="none" x="1490.34912109375" y="474.5">Quyền</text></g></g><g transform="translate(-217,-286) scale(1,1)"><path fill="#C0C0C0" stroke="none" d="M 1497 515 L 1546.67724609375 515 Q 1556.67724609375 515 1556.67724609375 525 L 1556.67724609375 544 Q 1556.67724609375 554 1546.67724609375 554 L 1497 554 Q 1487 554 1487 544 L 1487 525 Q 1487 515 1497 515 Z" opacity="0.2"/></g><g transform="translate(-217,-286) scale(1,1)"><path fill="#ffffff" stroke="none" d="M 1490 508 L 1539.67724609375 508 Q 1549.67724609375 508 1549.67724609375 518 L 1549.67724609375 537 Q 1549.67724609375 547 1539.67724609375 547 L 1490 547 Q 1480 547 1480 537 L 1480 518 Q 1480 508 1490 508 Z"/></g><g transform="translate(-217,-286) scale(1,1)"><path fill="none" stroke="#000000" d="M 1490 508 L 1539.67724609375 508 Q 1549.67724609375 508 1549.67724609375 518 L 1549.67724609375 537 Q 1549.67724609375 547 1539.67724609375 547 L 1490 547 Q 1480 547 1480 537 L 1480 518 Q 1480 508 1490 508 Z" stroke-miterlimit="10"/></g><g transform="translate(-217,-286) scale(1,1)"><g><path fill="none" stroke="none"/><text fill="#000000" stroke="none" font-family="Arial" font-size="13px" font-style="normal" font-weight="bold" text-decoration="none" x="1486.293212890625" y="527.5">Tài khảon</text></g></g><g transform="translate(-217,-286) scale(1,1)"><path fill="#C0C0C0" stroke="none" d="M 1497 568 L 1624.68359375 568 Q 1634.68359375 568 1634.68359375 578 L 1634.68359375 597 Q 1634.68359375 607 1624.68359375 607 L 1497 607 Q 1487 607 1487 597 L 1487 578 Q 1487 568 1497 568 Z" opacity="0.2"/></g><g transform="translate(-217,-286) scale(1,1)"><path fill="#ffffff" stroke="none" d="M 1490 561 L 1617.68359375 561 Q 1627.68359375 561 1627.68359375 571 L 1627.68359375 590 Q 1627.68359375 600 1617.68359375 600 L 1490 600 Q 1480 600 1480 590 L 1480 571 Q 1480 561 1490 561 Z"/></g><g transform="translate(-217,-286) scale(1,1)"><path fill="none" stroke="#000000" d="M 1490 561 L 1617.68359375 561 Q 1627.68359375 561 1627.68359375 571 L 1627.68359375 590 Q 1627.68359375 600 1617.68359375 600 L 1490 600 Q 1480 600 1480 590 L 1480 571 Q 1480 561 1490 561 Z" stroke-miterlimit="10"/></g><g transform="translate(-217,-286) scale(1,1)"><g><path fill="none" stroke="none"/><text fill="#000000" stroke="none" font-family="Arial" font-size="13px" font-style="normal" font-weight="bold" text-decoration="none" x="1488.791015625" y="580.5">Danh hiệu khách hàng</text></g></g><g transform="translate(-217,-286) scale(1,1)"><path fill="none" stroke="#000000" d="M 732 1135 L 1074 384" stroke-miterlimit="10"/></g><g transform="translate(-217,-286) scale(1,1)"><path fill="none" stroke="#000000" d="M 1073.61914121655 394.9934046858591 L 1074 384 L 1065.957181169849 391.504203173247" stroke-miterlimit="10"/></g><g transform="translate(-217,-286) scale(1,1)"><path fill="none" stroke="#000000" d="M 1137 384 L 1271 438" stroke-miterlimit="10"/></g><g transform="translate(-217,-286) scale(1,1)"><path fill="none" stroke="#000000" d="M 1260.000509203644 438.1058405445853 L 1271 438 L 1263.1473449014968 430.2970260350983" stroke-miterlimit="10"/></g><g transform="translate(-217,-286) scale(1,1)"><path fill="none" stroke="#000000" d="M 1097 384 L 1315 751" stroke-miterlimit="10"/></g><g transform="translate(-217,-286) scale(1,1)"><path fill="none" stroke="#000000" d="M 1306.1907426243545 744.4123612356449 L 1315 751 L 1313.4290784147463 740.1127503301806" stroke-miterlimit="10"/></g><g transform="translate(-217,-286) scale(1,1)"><path fill="none" stroke="#000000" d="M 1370 751 L 1463 708" stroke-miterlimit="10"/></g><g transform="translate(-217,-286) scale(1,1)"><path fill="none" stroke="#000000" d="M 1455.5422469631415 716.0859087084402 L 1463 708 L 1452.0089713754294 708.4441731350163" stroke-miterlimit="10"/></g><g transform="translate(-217,-286) scale(1,1)"><path fill="none" stroke="#000000" d="M 1392 769 L 1463 768" stroke-miterlimit="10"/></g><g transform="translate(-217,-286) scale(1,1)"><path fill="none" stroke="#000000" d="M 1452.8976160969778 772.3522223605827 L 1463 768 L 1452.7790498916233 763.9340217804229" stroke-miterlimit="10"/></g><g transform="translate(-217,-286) scale(1,1)"><path fill="none" stroke="#000000" d="M 1389 792 L 1479 823" stroke-miterlimit="10"/></g><g transform="translate(-217,-286) scale(1,1)"><path fill="none" stroke="#000000" d="M 1468.0204471396055 823.6703871909583 L 1479 823 L 1470.7622483892717 815.710319046766" stroke-miterlimit="10"/></g><g transform="translate(-217,-286) scale(1,1)"><path fill="none" stroke="#000000" d="M 1338 469 L 1514 560" stroke-miterlimit="10"/></g><g transform="translate(-217,-286) scale(1,1)"><path fill="none" stroke="#000000" d="M 1503.0392403240196 559.0716965337779 L 1514 560 L 1506.905982182123 551.5931628301935" stroke-miterlimit="10"/></g><g transform="translate(-217,-286) scale(1,1)"><path fill="none" stroke="#000000" d="M 1338 463 L 1479 514" stroke-miterlimit="10"/></g><g transform="translate(-217,-286) scale(1,1)"><path fill="none" stroke="#000000" d="M 1468.0114532986718 514.5018380144317 L 1479 514 L 1470.875071049044 506.5847771751676" stroke-miterlimit="10"/></g><g transform="translate(-217,-286) scale(1,1)"><path fill="none" stroke="#000000" d="M 1335 431 L 1482 336" stroke-miterlimit="10"/></g><g transform="translate(-217,-286) scale(1,1)"><path fill="none" stroke="#000000" d="M 1475.7494382838497 345.05154562672016 L 1482 336 L 1471.179776131412 337.9805947171584" stroke-miterlimit="10"/></g><g transform="translate(-217,-286) scale(1,1)"><path fill="none" stroke="#000000" d="M 1338 455 L 1479 471" stroke-miterlimit="10"/></g><g transform="translate(-217,-286) scale(1,1)"><path fill="none" stroke="#000000" d="M 1468.427500649999 474.036817000451 L 1479 471 L 1469.3767601212824 465.6714679097654" stroke-miterlimit="10"/></g><g transform="translate(-217,-286) scale(1,1)"><path fill="none" stroke="#000000" d="M 1338 446 L 1479 425" stroke-miterlimit="10"/></g><g transform="translate(-217,-286) scale(1,1)"><path fill="none" stroke="#000000" d="M 1469.5683076633316 430.66066954223874 L 1479 425 L 1468.3280885713034 422.3334842100497" stroke-miterlimit="10"/></g><g transform="translate(-217,-286) scale(1,1)"><path fill="none" stroke="#000000" d="M 1338 438 L 1479 383" stroke-miterlimit="10"/></g><g transform="translate(-217,-286) scale(1,1)"><path fill="none" stroke="#000000" d="M 1471.0618748060463 390.6148649630258 L 1479 383 L 1468.0023751922722 382.771420498623" stroke-miterlimit="10"/></g><g transform="translate(-217,-286) scale(1,1)"><path fill="#C0C0C0" stroke="none" d="M 254 311 L 361.46630859375 311 Q 371.46630859375 311 371.46630859375 321 L 371.46630859375 340 Q 371.46630859375 350 361.46630859375 350 L 254 350 Q 244 350 244 340 L 244 321 Q 244 311 254 311 Z" opacity="0.2"/></g><g transform="translate(-217,-286) scale(1,1)"><path fill="#ffffff" stroke="none" d="M 247 304 L 354.46630859375 304 Q 364.46630859375 304 364.46630859375 314 L 364.46630859375 333 Q 364.46630859375 343 354.46630859375 343 L 247 343 Q 237 343 237 333 L 237 314 Q 237 304 247 304 Z"/></g><g transform="translate(-217,-286) scale(1,1)"><path fill="none" stroke="#000000" d="M 247 304 L 354.46630859375 304 Q 364.46630859375 304 364.46630859375 314 L 364.46630859375 333 Q 364.46630859375 343 354.46630859375 343 L 247 343 Q 237 343 237 333 L 237 314 Q 237 304 247 304 Z" stroke-miterlimit="10"/></g><g transform="translate(-217,-286) scale(1,1)"><g><path fill="none" stroke="none"/><text fill="#000000" stroke="none" font-family="Arial" font-size="13px" font-style="normal" font-weight="bold" text-decoration="none" x="245.4228515625" y="323.5">Xây dựng hệ thống</text></g></g><g transform="translate(-217,-286) scale(1,1)"><path fill="#C0C0C0" stroke="none" d="M 288 407 L 327 407 Q 337 407 337 417 L 337 436 Q 337 446 327 446 L 288 446 Q 278 446 278 436 L 278 417 Q 278 407 288 407 Z" opacity="0.2"/></g><g transform="translate(-217,-286) scale(1,1)"><path fill="#ffffff" stroke="none" d="M 281 400 L 320 400 Q 330 400 330 410 L 330 429 Q 330 439 320 439 L 281 439 Q 271 439 271 429 L 271 410 Q 271 400 281 400 Z"/></g><g transform="translate(-217,-286) scale(1,1)"><path fill="none" stroke="#000000" d="M 281 400 L 320 400 Q 330 400 330 410 L 330 429 Q 330 439 320 439 L 281 439 Q 271 439 271 429 L 271 410 Q 271 400 281 400 Z" stroke-miterlimit="10"/></g><g transform="translate(-217,-286) scale(1,1)"><g><path fill="none" stroke="none"/><text fill="#000000" stroke="none" font-family="Arial" font-size="13px" font-style="normal" font-weight="bold" text-decoration="none" x="282.4345703125" y="419.5">Action</text></g></g><g transform="translate(-217,-286) scale(1,1)"><path fill="#C0C0C0" stroke="none" d="M 529 375 L 603.95361328125 375 Q 613.95361328125 375 613.95361328125 385 L 613.95361328125 404 Q 613.95361328125 414 603.95361328125 414 L 529 414 Q 519 414 519 404 L 519 385 Q 519 375 529 375 Z" opacity="0.2"/></g><g transform="translate(-217,-286) scale(1,1)"><path fill="#ffffff" stroke="none" d="M 522 368 L 596.95361328125 368 Q 606.95361328125 368 606.95361328125 378 L 606.95361328125 397 Q 606.95361328125 407 596.95361328125 407 L 522 407 Q 512 407 512 397 L 512 378 Q 512 368 522 368 Z"/></g><g transform="translate(-217,-286) scale(1,1)"><path fill="none" stroke="#000000" d="M 522 368 L 596.95361328125 368 Q 606.95361328125 368 606.95361328125 378 L 606.95361328125 397 Q 606.95361328125 407 596.95361328125 407 L 522 407 Q 512 407 512 397 L 512 378 Q 512 368 522 368 Z" stroke-miterlimit="10"/></g><g transform="translate(-217,-286) scale(1,1)"><g><path fill="none" stroke="none"/><text fill="#000000" stroke="none" font-family="Arial" font-size="13px" font-style="normal" font-weight="bold" text-decoration="none" x="519.369140625" y="387.5">Quản lí áciton</text></g></g><g transform="translate(-217,-286) scale(1,1)"><path fill="#C0C0C0" stroke="none" d="M 529 447 L 591.67724609375 447 Q 601.67724609375 447 601.67724609375 457 L 601.67724609375 476 Q 601.67724609375 486 591.67724609375 486 L 529 486 Q 519 486 519 476 L 519 457 Q 519 447 529 447 Z" opacity="0.2"/></g><g transform="translate(-217,-286) scale(1,1)"><path fill="#ffffff" stroke="none" d="M 522 440 L 584.67724609375 440 Q 594.67724609375 440 594.67724609375 450 L 594.67724609375 469 Q 594.67724609375 479 584.67724609375 479 L 522 479 Q 512 479 512 469 L 512 450 Q 512 440 522 440 Z"/></g><g transform="translate(-217,-286) scale(1,1)"><path fill="none" stroke="#000000" d="M 522 440 L 584.67724609375 440 Q 594.67724609375 440 594.67724609375 450 L 594.67724609375 469 Q 594.67724609375 479 584.67724609375 479 L 522 479 Q 512 479 512 469 L 512 450 Q 512 440 522 440 Z" stroke-miterlimit="10"/></g><g transform="translate(-217,-286) scale(1,1)"><g><path fill="none" stroke="none"/><text fill="#000000" stroke="none" font-family="Arial" font-size="13px" font-style="normal" font-weight="bold" text-decoration="none" x="518.642333984375" y="459.5">Phân quyền</text></g></g><g transform="translate(-217,-286) scale(1,1)"><path fill="#C0C0C0" stroke="none" d="M 288 535 L 327 535 Q 337 535 337 545 L 337 564 Q 337 574 327 574 L 288 574 Q 278 574 278 564 L 278 545 Q 278 535 288 535 Z" opacity="0.2"/></g><g transform="translate(-217,-286) scale(1,1)"><path fill="#ffffff" stroke="none" d="M 281 528 L 320 528 Q 330 528 330 538 L 330 557 Q 330 567 320 567 L 281 567 Q 271 567 271 557 L 271 538 Q 271 528 281 528 Z"/></g><g transform="translate(-217,-286) scale(1,1)"><path fill="none" stroke="#000000" d="M 281 528 L 320 528 Q 330 528 330 538 L 330 557 Q 330 567 320 567 L 281 567 Q 271 567 271 557 L 271 538 Q 271 528 281 528 Z" stroke-miterlimit="10"/></g><g transform="translate(-217,-286) scale(1,1)"><g><path fill="none" stroke="none"/><text fill="#000000" stroke="none" font-family="Arial" font-size="13px" font-style="normal" font-weight="bold" text-decoration="none" x="284.240478515625" y="547.5">Menu</text></g></g><g transform="translate(-217,-286) scale(1,1)"><path fill="#C0C0C0" stroke="none" d="M 529 543 L 600.341796875 543 Q 610.341796875 543 610.341796875 553 L 610.341796875 572 Q 610.341796875 582 600.341796875 582 L 529 582 Q 519 582 519 572 L 519 553 Q 519 543 529 543 Z" opacity="0.2"/></g><g transform="translate(-217,-286) scale(1,1)"><path fill="#ffffff" stroke="none" d="M 522 536 L 593.341796875 536 Q 603.341796875 536 603.341796875 546 L 603.341796875 565 Q 603.341796875 575 593.341796875 575 L 522 575 Q 512 575 512 565 L 512 546 Q 512 536 522 536 Z"/></g><g transform="translate(-217,-286) scale(1,1)"><path fill="none" stroke="#000000" d="M 522 536 L 593.341796875 536 Q 603.341796875 536 603.341796875 546 L 603.341796875 565 Q 603.341796875 575 593.341796875 575 L 522 575 Q 512 575 512 565 L 512 546 Q 512 536 522 536 Z" stroke-miterlimit="10"/></g><g transform="translate(-217,-286) scale(1,1)"><g><path fill="none" stroke="none"/><text fill="#000000" stroke="none" font-family="Arial" font-size="13px" font-style="normal" font-weight="bold" text-decoration="none" x="518.648681640625" y="555.5">Quản lí menu</text></g></g><g transform="translate(-217,-286) scale(1,1)"><path fill="#C0C0C0" stroke="none" d="M 529 615 L 629.9599609375 615 Q 639.9599609375 615 639.9599609375 625 L 639.9599609375 644 Q 639.9599609375 654 629.9599609375 654 L 529 654 Q 519 654 519 644 L 519 625 Q 519 615 529 615 Z" opacity="0.2"/></g><g transform="translate(-217,-286) scale(1,1)"><path fill="#ffffff" stroke="none" d="M 522 608 L 622.9599609375 608 Q 632.9599609375 608 632.9599609375 618 L 632.9599609375 637 Q 632.9599609375 647 622.9599609375 647 L 522 647 Q 512 647 512 637 L 512 618 Q 512 608 522 608 Z"/></g><g transform="translate(-217,-286) scale(1,1)"><path fill="none" stroke="#000000" d="M 522 608 L 622.9599609375 608 Q 632.9599609375 608 632.9599609375 618 L 632.9599609375 637 Q 632.9599609375 647 622.9599609375 647 L 522 647 Q 512 647 512 637 L 512 618 Q 512 608 522 608 Z" stroke-miterlimit="10"/></g><g transform="translate(-217,-286) scale(1,1)"><g><path fill="none" stroke="none"/><text fill="#000000" stroke="none" font-family="Arial" font-size="13px" font-style="normal" font-weight="bold" text-decoration="none" x="519.71826171875" y="627.5">Phân quyền menu</text></g></g><g transform="translate(-217,-286) scale(1,1)"><path fill="#C0C0C0" stroke="none" d="M 361 735 L 409.2236328125 735 Q 419.2236328125 735 419.2236328125 745 L 419.2236328125 764 Q 419.2236328125 774 409.2236328125 774 L 361 774 Q 351 774 351 764 L 351 745 Q 351 735 361 735 Z" opacity="0.2"/></g><g transform="translate(-217,-286) scale(1,1)"><path fill="#ffffff" stroke="none" d="M 354 728 L 402.2236328125 728 Q 412.2236328125 728 412.2236328125 738 L 412.2236328125 757 Q 412.2236328125 767 402.2236328125 767 L 354 767 Q 344 767 344 757 L 344 738 Q 344 728 354 728 Z"/></g><g transform="translate(-217,-286) scale(1,1)"><path fill="none" stroke="#000000" d="M 354 728 L 402.2236328125 728 Q 412.2236328125 728 412.2236328125 738 L 412.2236328125 757 Q 412.2236328125 767 402.2236328125 767 L 354 767 Q 344 767 344 757 L 344 738 Q 344 728 354 728 Z" stroke-miterlimit="10"/></g><g transform="translate(-217,-286) scale(1,1)"><g><path fill="none" stroke="none"/><text fill="#000000" stroke="none" font-family="Arial" font-size="13px" font-style="normal" font-weight="bold" text-decoration="none" x="350.661376953125" y="747.5">Form edit</text></g></g><g transform="translate(-217,-286) scale(1,1)"><path fill="#C0C0C0" stroke="none" d="M 529 703 L 668.2236328125 703 Q 678.2236328125 703 678.2236328125 713 L 678.2236328125 732 Q 678.2236328125 742 668.2236328125 742 L 529 742 Q 519 742 519 732 L 519 713 Q 519 703 529 703 Z" opacity="0.2"/></g><g transform="translate(-217,-286) scale(1,1)"><path fill="#ffffff" stroke="none" d="M 522 696 L 661.2236328125 696 Q 671.2236328125 696 671.2236328125 706 L 671.2236328125 725 Q 671.2236328125 735 661.2236328125 735 L 522 735 Q 512 735 512 725 L 512 706 Q 512 696 522 696 Z"/></g><g transform="translate(-217,-286) scale(1,1)"><path fill="none" stroke="#000000" d="M 522 696 L 661.2236328125 696 Q 671.2236328125 696 671.2236328125 706 L 671.2236328125 725 Q 671.2236328125 735 661.2236328125 735 L 522 735 Q 512 735 512 725 L 512 706 Q 512 696 522 696 Z" stroke-miterlimit="10"/></g><g transform="translate(-217,-286) scale(1,1)"><g><path fill="none" stroke="none"/><text fill="#000000" stroke="none" font-family="Arial" font-size="13px" font-style="normal" font-weight="bold" text-decoration="none" x="521.8828125" y="715.5">Quản lí component form</text></g></g><g transform="translate(-217,-286) scale(1,1)"><path fill="#C0C0C0" stroke="none" d="M 529 783 L 643.68359375 783 Q 653.68359375 783 653.68359375 793 L 653.68359375 812 Q 653.68359375 822 643.68359375 822 L 529 822 Q 519 822 519 812 L 519 793 Q 519 783 529 783 Z" opacity="0.2"/></g><g transform="translate(-217,-286) scale(1,1)"><path fill="#ffffff" stroke="none" d="M 522 776 L 636.68359375 776 Q 646.68359375 776 646.68359375 786 L 646.68359375 805 Q 646.68359375 815 636.68359375 815 L 522 815 Q 512 815 512 805 L 512 786 Q 512 776 522 776 Z"/></g><g transform="translate(-217,-286) scale(1,1)"><path fill="none" stroke="#000000" d="M 522 776 L 636.68359375 776 Q 646.68359375 776 646.68359375 786 L 646.68359375 805 Q 646.68359375 815 636.68359375 815 L 522 815 Q 512 815 512 805 L 512 786 Q 512 776 522 776 Z" stroke-miterlimit="10"/></g><g transform="translate(-217,-286) scale(1,1)"><g><path fill="none" stroke="none"/><text fill="#000000" stroke="none" font-family="Arial" font-size="13px" font-style="normal" font-weight="bold" text-decoration="none" x="520.44189453125" y="795.5">Quản lí store update</text></g></g><g transform="translate(-217,-286) scale(1,1)"><path fill="none" stroke="#000000" d="M 413 755 L 511 779" stroke-miterlimit="10"/></g><g transform="translate(-217,-286) scale(1,1)"><path fill="none" stroke="#000000" d="M 500.12770859187685 780.6713107242078 L 511 779 L 502.13033387172277 772.493924164837" stroke-miterlimit="10"/></g><g transform="translate(-217,-286) scale(1,1)"><path fill="none" stroke="#000000" d="M 413 742 L 511 727" stroke-miterlimit="10"/></g><g transform="translate(-217,-286) scale(1,1)"><path fill="none" stroke="#000000" d="M 501.59121431022936 732.6986622854814 L 511 727 L 500.31742109027635 724.3765465817881" stroke-miterlimit="10"/></g><g transform="translate(-217,-286) scale(1,1)"><path fill="none" stroke="#000000" d="M 331 548 L 511 554" stroke-miterlimit="10"/></g><g transform="translate(-217,-286) scale(1,1)"><path fill="none" stroke="#000000" d="M 500.7027270028595 557.8686132944972 L 511 554 L 500.98320574166536 549.4542511303202" stroke-miterlimit="10"/></g><g transform="translate(-217,-286) scale(1,1)"><path fill="none" stroke="#000000" d="M 331 556 L 511 609" stroke-miterlimit="10"/></g><g transform="translate(-217,-286) scale(1,1)"><path fill="none" stroke="#000000" d="M 500.0621445307621 610.167611979239 L 511 609 L 502.44014187774894 602.0913945743781" stroke-miterlimit="10"/></g><g transform="translate(-217,-286) scale(1,1)"><path fill="none" stroke="#000000" d="M 331 424 L 511 452" stroke-miterlimit="10"/></g><g transform="translate(-217,-286) scale(1,1)"><path fill="none" stroke="#000000" d="M 500.31106123238027 454.59741949289594 L 511 452 L 501.60512597671544 446.2784318507412" stroke-miterlimit="10"/></g><g transform="translate(-217,-286) scale(1,1)"><path fill="none" stroke="#000000" d="M 331 415 L 511 393" stroke-miterlimit="10"/></g><g transform="translate(-217,-286) scale(1,1)"><path fill="none" stroke="#000000" d="M 501.4230878529134 398.4113541491003 L 511 393 L 500.4016952637364 390.05450569219806" stroke-miterlimit="10"/></g><g transform="translate(-217,-286) scale(1,1)"><path fill="none" stroke="#000000" d="M 300 344 L 300 399" stroke-miterlimit="10"/></g><g transform="translate(-217,-286) scale(1,1)"><path fill="none" stroke="#000000" d="M 295.790482243984 388.83732514237585 L 300 399 L 304.209517756016 388.83732514237585" stroke-miterlimit="10"/></g><g transform="translate(-217,-286) scale(1,1)"><path fill="none" stroke="#000000" d="M 300 440 L 300 527" stroke-miterlimit="10"/></g><g transform="translate(-217,-286) scale(1,1)"><path fill="none" stroke="#000000" d="M 295.790482243984 516.8373251423759 L 300 527 L 304.209517756016 516.8373251423759" stroke-miterlimit="10"/></g><g transform="translate(-217,-286) scale(1,1)"><path fill="none" stroke="#000000" d="M 300 568 L 300 1007" stroke-miterlimit="10"/></g><g transform="translate(-217,-286) scale(1,1)"><path fill="none" stroke="#000000" d="M 295.790482243984 996.8373251423759 L 300 1007 L 304.209517756016 996.8373251423759" stroke-miterlimit="10"/></g><g transform="translate(-217,-286) scale(1,1)"><path fill="none" stroke="#000000" d="M 308 568 L 370 727" stroke-miterlimit="10"/></g><g transform="translate(-217,-286) scale(1,1)"><path fill="none" stroke="#000000" d="M 362.3860570897871 719.0609904043376 L 370 727 L 370.2298568576191 716.0024018156233" stroke-miterlimit="10"/></g><g transform="translate(-217,-286) scale(1,1)"><path fill="none" stroke="#000000" d="M 372 768 L 306 1007" stroke-miterlimit="10"/></g><g transform="translate(-217,-286) scale(1,1)"><path fill="none" stroke="#000000" d="M 304.6475329299769 996.0834605838432 L 306 1007 L 312.7628204117098 998.3245023152004" stroke-miterlimit="10"/></g></g></svg>