<svg version="1.1" xmlns="http://www.w3.org/2000/svg" xmlns:xlink="http://www.w3.org/1999/xlink" width="813.3349609375" height="676"><defs/><g><g transform="translate(-398,-278) scale(1,1)"><path fill="#C0C0C0" stroke="none" d="M 415 536.5 C 415 531.2532944 419.2532944 527 424.5 527 C 429.7467056 527 434 531.2532944 434 536.5 C 434 541.7467056 429.7467056 546 424.5 546 C 419.2532944 546 415 541.7467056 415 536.5 Z" opacity="0.2"/></g><g transform="translate(-398,-278) scale(1,1)"><path fill="#000000" stroke="none" d="M 408 529.5 C 408 524.2532944 412.2532944 520 417.5 520 C 422.7467056 520 427 524.2532944 427 529.5 C 427 534.7467056 422.7467056 539 417.5 539 C 412.2532944 539 408 534.7467056 408 529.5 Z"/></g><g transform="translate(-398,-278) scale(1,1)"><path fill="#C0C0C0" stroke="none" d="M 833 295 L 940.46630859375 295 Q 950.46630859375 295 950.46630859375 305 L 950.46630859375 325 Q 950.46630859375 335 940.46630859375 335 L 833 335 Q 823 335 823 325 L 823 305 Q 823 295 833 295 Z" opacity="0.2"/></g><g transform="translate(-398,-278) scale(1,1)"><path fill="#ffffff" stroke="none" d="M 826 288 L 933.46630859375 288 Q 943.46630859375 288 943.46630859375 298 L 943.46630859375 318 Q 943.46630859375 328 933.46630859375 328 L 826 328 Q 816 328 816 318 L 816 298 Q 816 288 826 288 Z"/></g><g transform="translate(-398,-278) scale(1,1)"><path fill="none" stroke="#000000" d="M 826 288 L 933.46630859375 288 Q 943.46630859375 288 943.46630859375 298 L 943.46630859375 318 Q 943.46630859375 328 933.46630859375 328 L 826 328 Q 816 328 816 318 L 816 298 Q 816 288 826 288 Z" stroke-miterlimit="10"/></g><g transform="translate(-398,-278) scale(1,1)"><g><path fill="none" stroke="none"/><text fill="#000000" stroke="none" font-family="Arial" font-size="13px" font-style="normal" font-weight="bold" text-decoration="none" x="824.4228515625" y="307.5">Xây dựng hệ thống</text></g></g><g transform="translate(-398,-278) scale(1,1)"><path fill="#C0C0C0" stroke="none" d="M 833 449 L 890.6181640625 449 Q 900.6181640625 449 900.6181640625 459 L 900.6181640625 479 Q 900.6181640625 489 890.6181640625 489 L 833 489 Q 823 489 823 479 L 823 459 Q 823 449 833 449 Z" opacity="0.2"/></g><g transform="translate(-398,-278) scale(1,1)"><path fill="#ffffff" stroke="none" d="M 826 442 L 883.6181640625 442 Q 893.6181640625 442 893.6181640625 452 L 893.6181640625 472 Q 893.6181640625 482 883.6181640625 482 L 826 482 Q 816 482 816 472 L 816 452 Q 816 442 826 442 Z"/></g><g transform="translate(-398,-278) scale(1,1)"><path fill="none" stroke="#000000" d="M 826 442 L 883.6181640625 442 Q 893.6181640625 442 893.6181640625 452 L 893.6181640625 472 Q 893.6181640625 482 883.6181640625 482 L 826 482 Q 816 482 816 472 L 816 452 Q 816 442 826 442 Z" stroke-miterlimit="10"/></g><g transform="translate(-398,-278) scale(1,1)"><g><path fill="none" stroke="none"/><text fill="#000000" stroke="none" font-family="Arial" font-size="13px" font-style="normal" font-weight="bold" text-decoration="none" x="826.263671875" y="461.5">Tài khoản</text></g></g><g transform="translate(-398,-278) scale(1,1)"><path fill="#C0C0C0" stroke="none" d="M 833 680 L 884.841796875 680 Q 894.841796875 680 894.841796875 690 L 894.841796875 710 Q 894.841796875 720 884.841796875 720 L 833 720 Q 823 720 823 710 L 823 690 Q 823 680 833 680 Z" opacity="0.2"/></g><g transform="translate(-398,-278) scale(1,1)"><path fill="#ffffff" stroke="none" d="M 826 673 L 877.841796875 673 Q 887.841796875 673 887.841796875 683 L 887.841796875 703 Q 887.841796875 713 877.841796875 713 L 826 713 Q 816 713 816 703 L 816 683 Q 816 673 826 673 Z"/></g><g transform="translate(-398,-278) scale(1,1)"><path fill="none" stroke="#000000" d="M 826 673 L 877.841796875 673 Q 887.841796875 673 887.841796875 683 L 887.841796875 703 Q 887.841796875 713 877.841796875 713 L 826 713 Q 816 713 816 703 L 816 683 Q 816 673 826 673 Z" stroke-miterlimit="10"/></g><g transform="translate(-398,-278) scale(1,1)"><g><path fill="none" stroke="none"/><text fill="#000000" stroke="none" font-family="Arial" font-size="13px" font-style="normal" font-weight="bold" text-decoration="none" x="822.29638671875" y="692.5">Danh mục</text></g></g><g transform="translate(-398,-278) scale(1,1)"><path fill="#C0C0C0" stroke="none" d="M 833 757 L 874.75537109375 757 Q 884.75537109375 757 884.75537109375 767 L 884.75537109375 787 Q 884.75537109375 797 874.75537109375 797 L 833 797 Q 823 797 823 787 L 823 767 Q 823 757 833 757 Z" opacity="0.2"/></g><g transform="translate(-398,-278) scale(1,1)"><path fill="#ffffff" stroke="none" d="M 826 750 L 867.75537109375 750 Q 877.75537109375 750 877.75537109375 760 L 877.75537109375 780 Q 877.75537109375 790 867.75537109375 790 L 826 790 Q 816 790 816 780 L 816 760 Q 816 750 826 750 Z"/></g><g transform="translate(-398,-278) scale(1,1)"><path fill="none" stroke="#000000" d="M 826 750 L 867.75537109375 750 Q 877.75537109375 750 877.75537109375 760 L 877.75537109375 780 Q 877.75537109375 790 867.75537109375 790 L 826 790 Q 816 790 816 780 L 816 760 Q 816 750 826 750 Z" stroke-miterlimit="10"/></g><g transform="translate(-398,-278) scale(1,1)"><g><path fill="none" stroke="none"/><text fill="#000000" stroke="none" font-family="Arial" font-size="13px" font-style="normal" font-weight="bold" text-decoration="none" x="821.931396484375" y="769.5">Nhân sự</text></g></g><g transform="translate(-398,-278) scale(1,1)"><path fill="#C0C0C0" stroke="none" d="M 833 834 L 926.72998046875 834 Q 936.72998046875 834 936.72998046875 844 L 936.72998046875 864 Q 936.72998046875 874 926.72998046875 874 L 833 874 Q 823 874 823 864 L 823 844 Q 823 834 833 834 Z" opacity="0.2"/></g><g transform="translate(-398,-278) scale(1,1)"><path fill="#ffffff" stroke="none" d="M 826 827 L 919.72998046875 827 Q 929.72998046875 827 929.72998046875 837 L 929.72998046875 857 Q 929.72998046875 867 919.72998046875 867 L 826 867 Q 816 867 816 857 L 816 837 Q 816 827 826 827 Z"/></g><g transform="translate(-398,-278) scale(1,1)"><path fill="none" stroke="#000000" d="M 826 827 L 919.72998046875 827 Q 929.72998046875 827 929.72998046875 837 L 929.72998046875 857 Q 929.72998046875 867 919.72998046875 867 L 826 867 Q 816 867 816 857 L 816 837 Q 816 827 826 827 Z" stroke-miterlimit="10"/></g><g transform="translate(-398,-278) scale(1,1)"><g><path fill="none" stroke="none"/><text fill="#000000" stroke="none" font-family="Arial" font-size="13px" font-style="normal" font-weight="bold" text-decoration="none" x="824.080078125" y="846.5">Kế toán tài chính</text></g></g><g transform="translate(-398,-278) scale(1,1)"><path fill="#C0C0C0" stroke="none" d="M 833 911 L 929.630859375 911 Q 939.630859375 911 939.630859375 921 L 939.630859375 941 Q 939.630859375 951 929.630859375 951 L 833 951 Q 823 951 823 941 L 823 921 Q 823 911 833 911 Z" opacity="0.2"/></g><g transform="translate(-398,-278) scale(1,1)"><path fill="#ffffff" stroke="none" d="M 826 904 L 922.630859375 904 Q 932.630859375 904 932.630859375 914 L 932.630859375 934 Q 932.630859375 944 922.630859375 944 L 826 944 Q 816 944 816 934 L 816 914 Q 816 904 826 904 Z"/></g><g transform="translate(-398,-278) scale(1,1)"><path fill="none" stroke="#000000" d="M 826 904 L 922.630859375 904 Q 932.630859375 904 932.630859375 914 L 932.630859375 934 Q 932.630859375 944 922.630859375 944 L 826 944 Q 816 944 816 934 L 816 914 Q 816 904 826 904 Z" stroke-miterlimit="10"/></g><g transform="translate(-398,-278) scale(1,1)"><g><path fill="none" stroke="none"/><text fill="#000000" stroke="none" font-family="Arial" font-size="13px" font-style="normal" font-weight="bold" text-decoration="none" x="824.08642578125" y="923.5">Báo cáo tài chính</text></g></g><g transform="translate(-398,-278) scale(1,1)"><path fill="#C0C0C0" stroke="none" d="M 1073 372 L 1122.67724609375 372 Q 1132.67724609375 372 1132.67724609375 382 L 1132.67724609375 402 Q 1132.67724609375 412 1122.67724609375 412 L 1073 412 Q 1063 412 1063 402 L 1063 382 Q 1063 372 1073 372 Z" opacity="0.2"/></g><g transform="translate(-398,-278) scale(1,1)"><path fill="#ffffff" stroke="none" d="M 1066 365 L 1115.67724609375 365 Q 1125.67724609375 365 1125.67724609375 375 L 1125.67724609375 395 Q 1125.67724609375 405 1115.67724609375 405 L 1066 405 Q 1056 405 1056 395 L 1056 375 Q 1056 365 1066 365 Z"/></g><g transform="translate(-398,-278) scale(1,1)"><path fill="none" stroke="#000000" d="M 1066 365 L 1115.67724609375 365 Q 1125.67724609375 365 1125.67724609375 375 L 1125.67724609375 395 Q 1125.67724609375 405 1115.67724609375 405 L 1066 405 Q 1056 405 1056 395 L 1056 375 Q 1056 365 1066 365 Z" stroke-miterlimit="10"/></g><g transform="translate(-398,-278) scale(1,1)"><g><path fill="none" stroke="none"/><text fill="#000000" stroke="none" font-family="Arial" font-size="13px" font-style="normal" font-weight="bold" text-decoration="none" x="1062.293212890625" y="384.5">Tài khoản</text></g></g><g transform="translate(-398,-278) scale(1,1)"><path fill="#C0C0C0" stroke="none" d="M 1073 487 L 1198.3349609375 487 Q 1208.3349609375 487 1208.3349609375 497 L 1208.3349609375 517 Q 1208.3349609375 527 1198.3349609375 527 L 1073 527 Q 1063 527 1063 517 L 1063 497 Q 1063 487 1073 487 Z" opacity="0.2"/></g><g transform="translate(-398,-278) scale(1,1)"><path fill="#ffffff" stroke="none" d="M 1066 480 L 1191.3349609375 480 Q 1201.3349609375 480 1201.3349609375 490 L 1201.3349609375 510 Q 1201.3349609375 520 1191.3349609375 520 L 1066 520 Q 1056 520 1056 510 L 1056 490 Q 1056 480 1066 480 Z"/></g><g transform="translate(-398,-278) scale(1,1)"><path fill="none" stroke="#000000" d="M 1066 480 L 1191.3349609375 480 Q 1201.3349609375 480 1201.3349609375 490 L 1201.3349609375 510 Q 1201.3349609375 520 1191.3349609375 520 L 1066 520 Q 1056 520 1056 510 L 1056 490 Q 1056 480 1066 480 Z" stroke-miterlimit="10"/></g><g transform="translate(-398,-278) scale(1,1)"><g><path fill="none" stroke="none"/><text fill="#000000" stroke="none" font-family="Arial" font-size="13px" font-style="normal" font-weight="bold" text-decoration="none" x="1066.20654296875" y="499.5">Thông tin người dùng</text></g></g><g transform="translate(-398,-278) scale(1,1)"><path fill="#C0C0C0" stroke="none" d="M 1073 602 L 1156.63720703125 602 Q 1166.63720703125 602 1166.63720703125 612 L 1166.63720703125 632 Q 1166.63720703125 642 1156.63720703125 642 L 1073 642 Q 1063 642 1063 632 L 1063 612 Q 1063 602 1073 602 Z" opacity="0.2"/></g><g transform="translate(-398,-278) scale(1,1)"><path fill="#ffffff" stroke="none" d="M 1066 595 L 1149.63720703125 595 Q 1159.63720703125 595 1159.63720703125 605 L 1159.63720703125 625 Q 1159.63720703125 635 1149.63720703125 635 L 1066 635 Q 1056 635 1056 625 L 1056 605 Q 1056 595 1066 595 Z"/></g><g transform="translate(-398,-278) scale(1,1)"><path fill="none" stroke="#000000" d="M 1066 595 L 1149.63720703125 595 Q 1159.63720703125 595 1159.63720703125 605 L 1159.63720703125 625 Q 1159.63720703125 635 1149.63720703125 635 L 1066 635 Q 1056 635 1056 625 L 1056 605 Q 1056 595 1066 595 Z" stroke-miterlimit="10"/></g><g transform="translate(-398,-278) scale(1,1)"><g><path fill="none" stroke="none"/><text fill="#000000" stroke="none" font-family="Arial" font-size="13px" font-style="normal" font-weight="bold" text-decoration="none" x="1063.740478515625" y="614.5">Quyền truy cập</text></g></g></g></svg>